<?xml version="1.0" standalone="no"?>
<!DOCTYPE svg PUBLIC "-//W3C//DTD SVG 1.1//EN" "http://www.w3.org/Graphics/SVG/1.1/DTD/svg11.dtd" >
<svg xmlns="http://www.w3.org/2000/svg">
<metadata>
Created by FontPrep 20130207 at Sun Jun 28 15:26:03 2015
 By Pirijan
Digitized data copyright The Monotype Corporation 1991-1995. All rights reserved. Plantin is a trademark of The Monotype Corporation which may be registered in certain jurisdictions.
</metadata>
<defs>
<font id="c5d4e6d43f9b6c9b70652c3e526093c2" horiz-adv-x='1024' >
  <font-face 
    font-family="Plantin-Bold"
    font-weight="700"
    font-stretch="normal"
    units-per-em="2048"
    panose-1="2 4 8 3 6 3 1 2 2 3"
    ascent="1638"
    descent="-410"
    x-height="922"
    cap-height="1397"
    bbox="-179 -774 2358 1869"
    underline-thickness="102"
    underline-position="-103"
    unicode-range="U+0020-F004"
  />
<missing-glyph horiz-adv-x="1479" 
d="M1143 184v1101h-798v-1101h798zM161 0v1469h1166v-1469h-1166z" />
    <glyph glyph-name=".notdef" horiz-adv-x="1479" 
d="M1143 184v1101h-798v-1101h798zM161 0v1469h1166v-1469h-1166z" />
    <glyph glyph-name=".null" horiz-adv-x="0" 
 />
    <glyph glyph-name="nonmarkingreturn" horiz-adv-x="533" 
 />
    <glyph glyph-name="space" unicode=" " horiz-adv-x="533" 
 />
    <glyph glyph-name="exclam" unicode="!" horiz-adv-x="704" 
d="M539 168q0 -78 -55.5 -132t-131.5 -54t-131.5 54t-55.5 132t54.5 133t132.5 55t132.5 -55t54.5 -133zM417 1426q109 0 109 -106q0 -48 -8 -103l-96 -623q-9 -59 -15 -72t-26 -13h-62q-19 0 -25.5 12.5t-15.5 72.5l-95 623q-9 56 -9 93q0 116 109 116h134z" />
    <glyph glyph-name="quotedbl" unicode="&#x22;" horiz-adv-x="1131" 
d="M177 1240q0 60 42.5 103.5t108.5 43.5t105 -44t39 -95t-24 -144l-98 -383h-49l-104 385q-20 74 -20 134zM658 1243q0 51 42 97.5t110 46.5t106.5 -45.5t38.5 -89.5t-26 -147l-97 -384h-49l-102 384q-23 87 -23 138z" />
    <glyph glyph-name="numbersign" unicode="#" horiz-adv-x="1024" 
d="M335 529h294l58 292h-294zM40 396v133h162l59 292h-221v130h247l87 433h132l-88 -433h295l86 433h132l-88 -433h140v-130h-165l-60 -292h225v-133h-250l-86 -424h-133l86 424h-291l-90 -424h-129l86 424h-136z" />
    <glyph glyph-name="dollar" unicode="$" 
d="M761 263q0 61 -34.5 109.5t-136.5 113.5v-404q86 18 128.5 69t42.5 112zM342 1122q0 -110 148 -200v355q-62 -11 -105 -54t-43 -101zM957 1114q0 -40 -42.5 -65.5t-78.5 -25.5t-51 13t-34 64q-53 147 -161 173v-411q254 -141 332.5 -254.5t78.5 -255.5t-104 -245
t-307 -123v-152h-100v149q-169 0 -286 85.5t-117 157.5q0 47 52 79t81 32t42 -14.5t52 -91.5q62 -122 176 -145v464q-224 133 -305 238t-81 238t98.5 235.5t287.5 118.5v62h100v-63q165 -13 266 -102t101 -161z" />
    <glyph glyph-name="percent" unicode="%" horiz-adv-x="1899" 
d="M1508 609q-50 0 -65.5 -55.5t-15.5 -259.5t18.5 -251t64.5 -47t63.5 52t17.5 252t-16.5 254.5t-66.5 54.5zM1864 300q0 -172 -96.5 -270.5t-262.5 -98.5t-257 104t-91 272t95.5 268t259.5 100t258 -101.5t94 -273.5zM624 -36h-145l789 1433h145zM380 1361
q-44 0 -63.5 -45t-19.5 -260t18.5 -262t64.5 -47t64 51.5t18 260.5t-19 255.5t-63 46.5zM734 1050q0 -172 -96.5 -270t-259.5 -98t-256.5 102t-93.5 274t96.5 270t259.5 98t256.5 -102t93.5 -274z" />
    <glyph glyph-name="ampersand" unicode="&#x26;" horiz-adv-x="1600" 
d="M345 489q0 -103 109.5 -237t216.5 -134t222 122q-93 127 -369 467q-75 -39 -127 -96.5t-52 -121.5zM872 1098q0 52 -62 130.5t-129 78.5q-38 0 -72.5 -25t-34.5 -79t51 -115l117 -139q130 71 130 149zM1221 694q0 78 -75 89q-27 4 -27 36v46q0 18 18 18h359
q26 0 32.5 -5.5t6.5 -23.5v-42q0 -18 -40 -39q-99 -52 -190 -183l-130 -187l77 -116q44 -65 117 -132.5t141 -76.5q33 -5 33 -27v-54q0 -15 -9 -19t-51 -4h-232q-94 0 -155 39.5t-145 146.5q-225 -188 -498 -188q-210 0 -316 100t-106 231q0 82 47 163t117 136t266 177
q-146 200 -146 293q0 121 149.5 237.5t269.5 116.5t213 -87.5t93 -184.5q0 -130 -228 -281l219 -275l86 -112l41 51q63 79 63 157z" />
    <glyph glyph-name="quotesingle" unicode="'" horiz-adv-x="576" 
d="M140 1237q0 61 42 105.5t108 44.5t105.5 -44.5t39.5 -96.5t-23 -141l-99 -383h-48l-105 382q-20 72 -20 133z" />
    <glyph glyph-name="parenleft" unicode="(" horiz-adv-x="853" 
d="M194 506q0 258 157 519t418 401l42 -92q-364 -338 -364 -833q0 -240 101 -458.5t272 -357.5l-41 -89q-263 130 -424 391t-161 519z" />
    <glyph glyph-name="parenright" unicode=")" horiz-adv-x="853" 
d="M659 514q0 -260 -157 -519.5t-418 -398.5l-42 92q365 337 365 832q0 241 -101 460t-273 356l42 90q261 -130 422.5 -391t161.5 -521z" />
    <glyph glyph-name="asterisk" unicode="*" horiz-adv-x="1045" 
d="M846 578l-82 -52l-241 218l-245 -221l-75 55l132 305l-282 157l29 92l318 -33l75 327h84l72 -323l335 33l27 -94l-275 -159z" />
    <glyph glyph-name="plus" unicode="+" horiz-adv-x="1365" 
d="M127 769h451v452h209v-452h452v-208h-452v-450h-209v450h-451v208z" />
    <glyph glyph-name="comma" unicode="," horiz-adv-x="704" 
d="M158 -335v51q0 28 30 29q92 3 152 62t60 114t-22 74q-23 19 -79 29t-80.5 22.5t-43 48t-18.5 86.5q0 89 51.5 132t121.5 43q106 0 173 -84t67 -242t-116.5 -279t-257.5 -121q-38 0 -38 35z" />
    <glyph glyph-name="hyphen" unicode="-" horiz-adv-x="939" 
d="M114 381v264h714v-264h-714z" />
    <glyph glyph-name="hyphen" unicode="&#xad;" horiz-adv-x="939" 
d="M114 381v264h714v-264h-714z" />
    <glyph glyph-name="period" unicode="." horiz-adv-x="704" 
d="M558 168q0 -78 -56 -132t-132 -54t-131 54t-55 132t55 133t133 55t132 -55t54 -133z" />
    <glyph glyph-name="slash" unicode="/" horiz-adv-x="576" 
d="M616 1387l-448 -1418h-208l447 1418h209z" />
    <glyph glyph-name="zero" unicode="0" 
d="M699 732q0 308 -39.5 420.5t-131.5 112.5t-127.5 -112t-38 -221t-2.5 -395t48 -377t114 -91t112.5 60t55.5 177.5t9 425.5zM996 690q0 -313 -136.5 -514t-329.5 -201q-126 0 -234.5 93.5t-170 266t-61.5 341.5q0 270 133.5 476t330.5 206q134 0 252 -106.5t167 -275.5
t49 -286z" />
    <glyph glyph-name="one" unicode="1" 
d="M675 1357v-998q0 -122 8.5 -164t48.5 -71t118 -29h37v-95h-692v95h22q110 0 149.5 44.5t39.5 179.5v546q0 119 -35 164t-141 45h-35v91q78 22 192 82.5t164 109.5h124z" />
    <glyph glyph-name="two" unicode="2" 
d="M66 0v92q218 192 392.5 425t174.5 392q0 114 -77.5 183t-193.5 69t-218 -101l-55 62q194 235 440 235q155 0 261 -93.5t106 -241.5t-101.5 -294.5t-457.5 -472.5h344q92 0 132.5 19.5t66.5 87.5h91l-117 -362h-788z" />
    <glyph glyph-name="three" unicode="3" 
d="M530 1357q173 0 264.5 -82t91.5 -196q0 -165 -215 -268q143 -53 211.5 -149t68.5 -196q0 -189 -166.5 -340.5t-416.5 -151.5q-115 0 -198 34t-83 84q0 23 24 65.5t73 42.5t124 -62t138 -63q103 0 163 82.5t60 185.5q0 139 -98.5 212.5t-367.5 79.5l15 89q185 0 287 72.5
t102 175.5t-65.5 155t-150.5 52q-110 0 -252 -129l-59 78q114 138 220.5 183.5t229.5 45.5z" />
    <glyph glyph-name="four" unicode="4" 
d="M599 508v610l-427 -610h427zM1008 508v-204h-156v-329h-253v329h-540v185l612 868h181v-849h156z" />
    <glyph glyph-name="five" unicode="5" 
d="M721 1122h-300l-74 -173q581 -132 581 -491q0 -144 -85.5 -256t-235 -169.5t-296.5 -57.5q-191 0 -191 83q0 41 23.5 82t53.5 41t78 -18q130 -49 232 -49t156.5 57.5t54.5 141.5q0 161 -193.5 263t-365.5 143l262 613h418l44 58l73 -36l-92 -181q-19 -39 -30 -45t-113 -6
z" />
    <glyph glyph-name="six" unicode="6" 
d="M368 498q0 -430 184 -430q70 0 114.5 66t44.5 194t-40.5 236.5t-152.5 108.5q-150 0 -150 -175zM651 822q142 0 248 -114t106 -294t-132.5 -309.5t-338.5 -129.5t-336.5 165t-130.5 391q0 164 80 326t237 284.5t468 215.5l99 -72q-243 -95 -377 -220.5t-179 -350.5
q114 108 256 108z" />
    <glyph glyph-name="seven" unicode="7" 
d="M417 1080q-143 0 -173.5 -20t-43.5 -95h-84l93 367h772l-464 -1357h-135l377 1105h-342z" />
    <glyph glyph-name="eight" unicode="8" 
d="M284 293q0 -101 54 -163.5t154 -62.5t156 54.5t56 134.5t-54.5 144t-211.5 174q-154 -121 -154 -281zM759 1036q0 103 -60.5 165t-136.5 62t-128.5 -49.5t-52.5 -119.5t52 -131t179 -148q147 76 147 221zM113 997q0 156 134 258t304 102t280.5 -85.5t110.5 -204.5
q0 -166 -247 -313q132 -77 218 -189.5t86 -222.5t-65 -195t-174.5 -129t-239.5 -44q-198 0 -310.5 94t-112.5 224q0 90 59 164.5t205 171.5q-106 81 -177 171.5t-71 197.5z" />
    <glyph glyph-name="nine" unicode="9" 
d="M698 865q0 197 -47 299.5t-125 102.5t-123 -73.5t-45 -209.5t45.5 -231t135.5 -95t152 60q7 86 7 147zM425 510q-151 0 -255.5 114t-104.5 292t130.5 309.5t334.5 131.5t336 -155.5t132 -404.5q0 -308 -213.5 -531t-563.5 -291l-65 80q472 178 521 552
q-29 -31 -104.5 -64t-147.5 -33z" />
    <glyph glyph-name="colon" unicode=":" horiz-adv-x="704" 
d="M544 168q0 -78 -56 -132t-132 -54t-131 54t-55 132t55 133t133 55t132 -55t54 -133zM544 756q0 -78 -56 -131.5t-132 -53.5t-131 54.5t-55 132.5t55 132t133 54t132 -55t54 -133z" />
    <glyph glyph-name="semicolon" unicode=";" horiz-adv-x="704" 
d="M160 -335v51q0 28 30 29q92 3 152 61t60 114t-22 75q-23 19 -79 29t-80.5 22.5t-43 48t-18.5 86.5q0 89 51.5 132t121.5 43q107 0 174 -85t67 -243t-117.5 -278t-257.5 -120q-38 0 -38 35zM555 758q0 -78 -55 -132t-132 -54t-132 54t-55 132t54.5 133t132.5 55t132.5 -55
t54.5 -133z" />
    <glyph glyph-name="less" unicode="&#x3c;" horiz-adv-x="1365" 
d="M1237 108l-1110 463v189l1110 464v-226l-825 -332l825 -332v-226z" />
    <glyph glyph-name="equal" unicode="=" horiz-adv-x="1365" 
d="M127 533h1111v-209h-1111v209zM127 1010h1111v-209h-1111v209z" />
    <glyph glyph-name="greater" unicode="&#x3e;" horiz-adv-x="1365" 
d="M127 1224l1110 -463v-189l-1110 -464v225l826 332l-826 332v227z" />
    <glyph glyph-name="question" unicode="?" horiz-adv-x="939" 
d="M531 168q0 -76 -55.5 -131t-132.5 -55t-131.5 54t-54.5 132t54.5 133t133.5 55t132.5 -56t53.5 -132zM356 482h-41q-24 0 -26.5 8t-34.5 347q0 30 24 42.5t140 36.5q226 47 227 174q0 60 -52.5 111t-120.5 51t-182 -50t-155 -49q-41 0 -67.5 37t-26.5 99t68.5 99.5
t172.5 37.5t245 -66t222 -185t81 -256q0 -251 -348 -301q-63 -10 -79.5 -24t-16.5 -46t1 -42q1 -24 -31 -24z" />
    <glyph glyph-name="at" unicode="@" horiz-adv-x="1899" 
d="M1099 732q0 160 -71 159q-85 0 -184.5 -235t-99.5 -378q0 -39 16 -67t49 -28t107 86.5t128.5 231.5t54.5 231zM654 0q-168 0 -168 254q0 126 68.5 290t204.5 291.5t243 127.5q125 0 143 -157l34 119l244 10l-183 -628q-31 -103 -31 -145t23.5 -66t58.5 -24q76 0 187 87.5
t177 231t66 302.5q0 269 -174 450t-471 181q-391 0 -635 -272.5t-244 -650.5q0 -237 104 -416t283.5 -275t398.5 -96q270 0 498 150.5t318 400.5h61q-115 -292 -348 -449.5t-534 -157.5q-376 0 -631 243t-255 641t272 671.5t695 273.5q335 0 527 -191.5t192 -483.5
t-170 -502t-430 -210q-108 0 -155.5 54t-47.5 114t24 148q-183 -316 -345 -316z" />
    <glyph glyph-name="A" unicode="A" horiz-adv-x="1600" 
d="M878 647l-202 515l-182 -515h384zM360 230q0 -118 134 -135v-95h-482v95q128 24 163 81.5t75 161.5l378 959l-54 117h381l437 -1119q51 -132 98 -166t98 -34v-95h-694v95q61 2 104 29t43 66t-26 104l-91 233h-477l-61 -175q-26 -75 -26 -122z" />
    <glyph glyph-name="B" unicode="B" horiz-adv-x="1600" 
d="M602 674v-352q0 -227 204 -227q166 0 245 78t79 184t-69.5 211.5t-259.5 105.5h-199zM602 772h203q135 0 209 66t74 172t-48 176t-109 93t-151 23h-178v-530zM1475 1070q0 -250 -383 -336q197 -27 311 -120.5t114 -221.5t-76.5 -220t-200 -132t-344.5 -40h-831v95
q133 0 154.5 59.5t21.5 163.5v761q0 110 -24.5 166.5t-157.5 56.5v95h896q265 0 392.5 -91.5t127.5 -235.5z" />
    <glyph glyph-name="C" unicode="C" horiz-adv-x="1643" 
d="M1549 457v-343q-256 -142 -608 -142t-596.5 183t-244.5 507t222.5 544t611.5 220q293 0 557 -128l42 -324h-152q-42 119 -169.5 238t-293.5 119q-202 0 -315 -162.5t-113 -452.5t131.5 -469.5t340.5 -179.5q312 0 433 390h154z" />
    <glyph glyph-name="D" unicode="D" horiz-adv-x="1792" 
d="M603 1302v-963q0 -139 54.5 -190t190.5 -51t230 55t157 185t63 317t-47.5 320.5t-135.5 212t-180.5 96.5t-277.5 18h-54zM61 1397h849q162 0 285 -26t238.5 -113.5t183 -231.5t67.5 -314t-70 -314t-208 -244.5t-277 -127t-348 -26.5h-720v95q136 0 158 58t22 165v761
q0 110 -24 166.5t-156 56.5v95z" />
    <glyph glyph-name="E" unicode="E" horiz-adv-x="1536" 
d="M1406 1397v-296h-135q-107 135 -184.5 168t-192.5 33h-289v-521h193q162 0 227 33.5t93 139.5h136v-452h-136q-16 67 -55.5 112t-88.5 58.5t-173 13.5h-196v-375q0 -88 33 -152t197 -64t217 19t128 65t176 168h142l-61 -347h-1375v95q136 0 159 58t23 165v761
q0 110 -24.5 166.5t-157.5 56.5v95h1344z" />
    <glyph glyph-name="F" unicode="F" horiz-adv-x="1408" 
d="M1364 1397v-296h-133q-74 113 -145.5 157t-234.5 44h-249v-542h140q120 0 177.5 11.5t97 57t46.5 112.5h137v-465h-139q-27 114 -90.5 151.5t-226.5 37.5h-142v-347q0 -112 26.5 -167.5t142.5 -55.5h36v-95h-741v95q128 0 151.5 57t23.5 166v761q0 110 -24 166.5
t-151 56.5v95h1298z" />
    <glyph glyph-name="G" unicode="G" horiz-adv-x="1728" 
d="M972 68q112 0 198 54v256q0 113 -25 168t-138 55h-19v96h702v-96q-96 -8 -127 -50.5t-31 -172.5v-296q-90 -51 -285 -81t-335 -30q-371 0 -591.5 184.5t-220.5 517.5q0 242 114 404.5t280 255.5t449 93q156 0 315.5 -36t240.5 -87l23 -320h-132q-64 153 -195 248t-298 95
t-285.5 -143t-118.5 -456t122 -486t357 -173z" />
    <glyph glyph-name="H" unicode="H" horiz-adv-x="1792" 
d="M607 778h574v301q0 110 -24.5 166.5t-155.5 56.5v95h728v-95q-140 0 -163 -58t-23 -165v-761q0 -110 25.5 -166.5t160.5 -56.5v-95h-719v95q123 0 147 56.5t24 166.5v339h-574v-339q0 -110 24.5 -166.5t151.5 -56.5v-95h-739v95h38q48 0 89 18.5t57.5 55.5t16.5 149v761
q0 112 -25 167.5t-138 55.5h-38v95h739v-95q-129 0 -152.5 -57t-23.5 -166v-301z" />
    <glyph glyph-name="I" unicode="I" horiz-adv-x="832" 
d="M776 0h-720v95q130 0 153 57.5t23 165.5v761q0 111 -24.5 167t-151.5 56v95h720v-95q-134 0 -158 -57t-24 -166v-761q0 -111 25.5 -167t156.5 -56v-95z" />
    <glyph glyph-name="J" unicode="J" horiz-adv-x="832" 
d="M61 1397h714v-95q-128 0 -151 -57t-23 -166v-851q0 -228 -43 -349t-170.5 -206.5t-263.5 -85.5t-191 52t-55 104t40 82t93 30q89 0 110 -83q17 -64 56 -64q25 0 43.5 26.5t18.5 128.5v1216q0 110 -24 166.5t-154 56.5v95z" />
    <glyph glyph-name="K" unicode="K" horiz-adv-x="1600" 
d="M962 1302v95h567v-95q-97 -19 -149 -46.5t-163 -121.5l-342 -287l506 -576q145 -164 243 -176v-95h-436q-119 100 -164 153l-424 499v-334q0 -111 24.5 -167t151.5 -56v-95h-718v95h23q112 0 137 55.5t25 167.5v761q0 112 -25 167.5t-137 55.5h-23v95h722v-95
q-135 0 -157.5 -57.5t-22.5 -165.5v-325l304 247q33 27 105 100.5t72 118.5t-33 63.5t-71 18.5h-15z" />
    <glyph glyph-name="L" unicode="L" horiz-adv-x="1408" 
d="M74 0v95q123 0 146.5 56.5t23.5 166.5v761q0 111 -25 167t-145 56v95h716v-95q-139 0 -161.5 -58.5t-22.5 -164.5v-745q0 -123 41 -179t159 -56q244 0 458 249h128l-61 -348h-1257z" />
    <glyph glyph-name="M" unicode="M" horiz-adv-x="2069" 
d="M1878 1302q-146 0 -146 -123q0 -60 14 -141l111 -670q23 -137 35 -174.5t50.5 -67t97.5 -31.5v-95h-720v95q91 0 135.5 37t44.5 132q0 94 -27 240t-39 235l-40 299q-50 -117 -127 -270q-234 -464 -306 -768h-129q-61 248 -229 587q-103 209 -194 432l-110 -638
q-11 -66 -11 -128t41.5 -110t110.5 -48h33v-95h-463v95q75 0 111.5 61t70.5 247l120 662q10 57 10 100q0 127 -153 137v95h514q2 -88 34.5 -191.5t114.5 -279.5t145 -326l44 -102q42 117 147 315l109 225q79 162 79 288q0 46 -9 71h559v-95h-28z" />
    <glyph glyph-name="N" unicode="N" horiz-adv-x="1621" 
d="M586 95v-95h-554v95q133 0 173.5 70.5t40.5 254.5l-10 775q-112 95 -210 107v95h505l772 -874l-12 393q-9 256 -51 318.5t-184 67.5v95h529v-95q-86 -13 -119.5 -32.5t-50.5 -67.5t-17 -192l12 -650q2 -87 20 -178q18 -92 18 -132t-5 -70h-140l-973 1105l15 -619
q7 -261 71 -316t170 -55z" />
    <glyph glyph-name="O" unicode="O" horiz-adv-x="1792" 
d="M1290 680q0 271 -103 455t-291 184t-291 -149.5t-103 -455.5t116.5 -474t293.5 -168q117 0 214.5 80.5t130.5 205t33 322.5zM1687 684q0 -165 -85.5 -327t-268 -273.5t-449.5 -111.5q-350 0 -564.5 197t-214.5 518t236 530t561 209q236 0 426 -102t274.5 -254.5
t84.5 -385.5z" />
    <glyph glyph-name="P" unicode="P" horiz-adv-x="1493" 
d="M53 1397h793q240 0 348 -35t184.5 -131t76.5 -223q0 -175 -141 -282t-437 -107q-103 0 -129 12.5t-26 53.5t31 41l30 -2q36 -2 47 -2q118 0 178 79t60 202t-77 211t-262 88h-129v-984q0 -112 25.5 -167.5t138.5 -55.5h27v-95h-738v95h23q112 0 137 55.5t25 167.5v761
q0 112 -25 167.5t-137 55.5h-23v95z" />
    <glyph glyph-name="Q" unicode="Q" horiz-adv-x="1771" 
d="M1279 680q0 271 -103 455t-291 184t-291 -149.5t-103 -455.5t116.5 -474t293.5 -168q117 0 214.5 80.5t130.5 205t33 322.5zM1641 -401q-134 0 -310.5 49t-364.5 155l-367 205q-249 77 -377 252.5t-128 415.5q0 332 236 541t556 209t555.5 -184.5t235.5 -526.5
q0 -260 -142.5 -444t-367.5 -257q101 -59 296.5 -116t256.5 -64v-230q-40 -5 -79 -5z" />
    <glyph glyph-name="R" unicode="R" horiz-adv-x="1579" 
d="M612 1302v-581h52q160 0 235.5 19t122 86.5t46.5 167.5t-41.5 175t-110 104t-175.5 29h-129zM612 626v-308q0 -111 24 -167t151 -56v-95h-725v95h25q48 0 89 18.5t57.5 55.5t16.5 149v761q0 112 -25.5 167.5t-137.5 55.5h-25v95h818q203 0 308 -25t185 -121.5t80 -225.5
t-109 -226t-251 -119q104 -120 228 -290t182 -227.5t105 -64.5v-98h-367q-50 0 -102 56t-224 302t-197.5 257t-84.5 11h-21z" />
    <glyph glyph-name="S" unicode="S" horiz-adv-x="1344" 
d="M660 1328q-101 0 -158.5 -50t-57.5 -121t58 -127t272 -150q216 -94 347.5 -194t131.5 -297t-153 -307t-422 -110q-127 0 -285.5 29t-273.5 77l-8 346h167q55 -206 166.5 -279t215.5 -73t172 50t68 124t-29.5 124.5t-83 85t-213.5 106.5t-257 130t-154.5 145.5
t-57.5 182.5q0 171 154.5 288.5t402.5 117.5t498 -118l16 -307h-163q-20 134 -118 230.5t-235 96.5z" />
    <glyph glyph-name="T" unicode="T" horiz-adv-x="1515" 
d="M1471 1397v-302h-130q-143 207 -331 207h-70v-984q0 -112 25 -167.5t135 -55.5h20v-95h-720v95h19q47 0 87.5 18.5t57 55t16.5 149.5v984h-71q-186 0 -331 -207h-130v302h1423z" />
    <glyph glyph-name="U" unicode="U" horiz-adv-x="1707" 
d="M962 135q431 0 431 433l-8 467q-2 141 -51.5 201.5t-168.5 65.5v95h512v-95q-153 -26 -170 -98.5t-17 -181.5v-447q0 -171 -17.5 -255t-126.5 -216t-473 -132t-474.5 114.5t-139.5 204t-29 300.5v488q0 112 -25 167.5t-137 55.5h-20v95h730v-95h-28q-48 0 -89 -18.5
t-57.5 -55.5t-16.5 -149v-485q0 -184 35.5 -273t123.5 -137.5t216 -48.5z" />
    <glyph glyph-name="V" unicode="V" horiz-adv-x="1493" 
d="M18 1397h649v-95q-132 -5 -132 -85q0 -35 40 -124l311 -686l232 566q46 112 46 174q0 150 -152 155v95h443v-95q-56 -12 -88.5 -53t-107.5 -211l-294 -660q-69 -155 -139 -406h-159q-31 137 -95 280l-401 894q-48 106 -86 129.5t-67 26.5v95z" />
    <glyph glyph-name="W" unicode="W" horiz-adv-x="2112" 
d="M21 1397h604v-95q-103 0 -103 -96q0 -26 24 -93l254 -713l202 575l-64 166q-27 72 -61 107t-101 54v95h636v-95q-117 0 -117 -98q0 -34 19 -84l263 -711l189 566q30 91 30 164q0 139 -139 163v95h409v-95q-64 -26 -94.5 -68.5t-75.5 -181.5l-152 -466q-18 -54 -82 -228
t-119 -386h-184q-26 155 -76 284l-228 582l-145 -414l-93 -251q-40 -110 -64 -201h-176q-8 33 -34 113q-26 81 -42 135t-42 124l-275 754q-69 187 -163 204v95z" />
    <glyph glyph-name="X" unicode="X" horiz-adv-x="1600" 
d="M1589 95v-95h-801v95q163 0 163 75q0 57 -89 167l-163 201l-194 -225q-51 -60 -51 -110t41 -78.5t97 -29.5v-95h-559v95q60 2 118 26.5t89.5 53t133.5 147.5l263 299l-420 552q-58 76 -98.5 100.5t-111.5 28.5v95h792v-95q-150 -2 -150 -75q0 -49 84 -160l132 -175
l180 210q58 68 58 116q0 79 -119 84v95h503v-95q-134 -12 -281 -179l-274 -311l389 -511q110 -144 147.5 -175t120.5 -31z" />
    <glyph glyph-name="Y" unicode="Y" horiz-adv-x="1493" 
d="M780 1397v-95q-109 -1 -140 -27.5t-31 -60.5t36 -103l235 -449l211 378q52 93 52 139q0 116 -146 123v95h469v-95q-85 -16 -142 -91t-84 -122l-318 -539v-232q0 -113 28 -168t137 -55h32v-95h-747v95h33q114 0 138.5 55.5t24.5 167.5v190l-357 675q-39 77 -79 94t-103 25
v95h751z" />
    <glyph glyph-name="Z" unicode="Z" horiz-adv-x="1408" 
d="M774 95q151 0 233.5 57t132.5 121l58 76h145l-67 -349h-1215v74l806 1228h-239q-127 0 -179.5 -25.5t-120.5 -106.5l-70 -82h-129v309h1178l-2 -61l-811 -1241h280z" />
    <glyph glyph-name="bracketleft" unicode="[" horiz-adv-x="811" 
d="M717 -273v-95h-548v1774h548v-95h-77q-92 0 -121.5 -15t-41.5 -49.5t-12 -127.5v-1174q0 -117 12 -167.5t145 -50.5h95z" />
    <glyph glyph-name="backslash" unicode="\" horiz-adv-x="576" 
d="M-40 1387h208l448 -1418h-209z" />
    <glyph glyph-name="bracketright" unicode="]" horiz-adv-x="811" 
d="M93 1311v95h548v-1774h-548v95h77q92 0 121.5 15t42 49.5t12.5 127.5v1174q0 117 -12.5 167.5t-144.5 50.5h-96z" />
    <glyph glyph-name="asciicircum" unicode="^" horiz-adv-x="1195" 
d="M150 666l411 718h82l404 -718h-159l-295 512l-290 -512h-153z" />
    <glyph glyph-name="underscore" unicode="_" horiz-adv-x="1024" 
d="M-12 -154h1048v-102h-1048v102z" />
    <glyph glyph-name="grave" unicode="`" horiz-adv-x="683" 
d="M93 1412q0 32 74 32h175q51 0 69.5 -15t44.5 -90l104 -304h-119l-289 286q-59 59 -59 91z" />
    <glyph glyph-name="a" unicode="a" horiz-adv-x="1152" 
d="M514 127q64 0 170 88v254q-168 -43 -233.5 -90t-65.5 -107t32.5 -102.5t96.5 -42.5zM360 -22q-122 0 -208.5 56t-86.5 164q0 221 464 328l155 37v151q0 69 -44.5 100.5t-102.5 31.5t-104.5 -32t-46.5 -94q0 -34 15 -81l-272 -87q-29 73 -29 136q0 127 132.5 193t358.5 66
q143 0 234 -32.5t122.5 -88t31.5 -155.5v-337q0 -90 11 -117.5t33 -27.5t83 24l17 -99q-93 -136 -237 -136t-198 136q-144 -136 -328 -136z" />
    <glyph glyph-name="b" unicode="b" horiz-adv-x="1237" 
d="M597 745q-73 0 -165 -64v-331q0 -132 47 -202t137 -70t158.5 86t68.5 241t-73 247.5t-173 92.5zM592 -22q-266 0 -456 132v1043l-155 100v50l386 116h65v-626q136 107 200 130t133 23q180 0 287 -136t107 -335t-150.5 -348t-416.5 -149z" />
    <glyph glyph-name="c" unicode="c" 
d="M529 -22q-217 0 -337 141t-120 338t139.5 343t413.5 146q171 0 258 -64.5t87 -156.5q0 -56 -40 -99.5t-100 -43.5q-95 0 -142 145q-23 67 -51 93q-29 26 -93 26t-127 -66.5t-63 -208.5t97.5 -262t228.5 -120t237 107l76 -69q-61 -123 -190.5 -186t-273.5 -63z" />
    <glyph glyph-name="d" unicode="d" horiz-adv-x="1259" 
d="M615 165q88 0 177 69v337q0 157 -56 216t-125 59q-103 0 -166 -97t-63 -245t72.5 -243.5t160.5 -95.5zM569 946q111 0 223 -46v285l-161 84v66l400 96h56v-1086q0 -85 3.5 -127t30.5 -66.5t59 -24.5t61 7v-110l-357 -42h-92v152q-166 -156 -330 -156t-280 131t-116 335
t143 353t360 149z" />
    <glyph glyph-name="e" unicode="e" 
d="M522 850q-76 0 -124 -64.5t-48 -166.5h339q3 111 -44 171t-123 60zM521 -22q-210 0 -328.5 130.5t-118.5 342.5t137 353.5t343 141.5t326.5 -111.5t123.5 -311.5h-648q7 -125 102.5 -228t213.5 -103t253 101l82 -60q-196 -255 -486 -255z" />
    <glyph glyph-name="f" unicode="f" horiz-adv-x="725" 
d="M690 922v-121h-192v-493q0 -122 34.5 -167.5t117.5 -45.5h56v-95h-643v95q83 10 111.5 53t28.5 160v493h-157v121q86 0 112 18.5t40 83.5q41 184 165 290t328 105q156 0 226.5 -46.5t70.5 -110.5t-53.5 -107.5t-115.5 -43.5t-124 99q-61 99 -111 99t-68 -38.5t-18 -165.5
v-183h192z" />
    <glyph glyph-name="g" unicode="g" horiz-adv-x="1131" 
d="M249 -165q0 -119 289 -119q151 0 239 44.5t88 106.5q0 77 -193 77l-268 -7q-29 0 -78 4q-77 -48 -77 -106zM545 415q133 0 133 173q0 262 -140 262t-139 -198q0 -237 146 -237zM106 620q0 145 110 235.5t312 90.5q88 0 226 -14t208 -14t158 6l1 -198q-18 -2 -48 -2t-73 4
t-55 5q18 -77 18 -113q0 -141 -125.5 -221.5t-337.5 -80.5q-39 0 -103 11q-75 -49 -75 -92q0 -23 25 -31.5t117 -8.5l226 7q108 0 179.5 -21t122 -86t50.5 -149t-62.5 -164t-178 -125t-325.5 -45t-304 53t-94 137q0 43 32 78.5t121 83.5q-46 12 -88 55.5t-42 95.5
q0 132 204 236q-199 86 -199 267z" />
    <glyph glyph-name="h" unicode="h" horiz-adv-x="1280" 
d="M468 1418v-639q141 167 330 167q110 0 181.5 -41t97 -103t25.5 -180v-314q0 -115 26.5 -156t108.5 -57v-95h-548v95q71 20 94 61t23 152v172q0 102 -12 151t-53.5 80.5t-105.5 31.5t-167 -58v-377q0 -87 10.5 -125t44.5 -63t64 -25v-95h-557v95q74 0 108 45.5t34 167.5
v852l-142 86v60l359 112h79z" />
    <glyph glyph-name="i" unicode="i" horiz-adv-x="683" 
d="M496 940v-632q0 -96 16 -135.5t55.5 -58.5t78.5 -19v-95h-610v95q100 0 132.5 47t32.5 166v369l-165 94v63l357 106h103zM494 1242q0 -72 -51.5 -122.5t-123.5 -50.5t-123.5 51.5t-51.5 123.5t51 123.5t125 51.5t124 -52.5t50 -124.5z" />
    <glyph glyph-name="j" unicode="j" horiz-adv-x="640" 
d="M495 940v-674q0 -153 -13.5 -216.5t-62 -138.5t-154.5 -165t-185 -131l-76 110q104 109 139.5 160t45.5 93t10 191v509l-169 100v53l357 109h108zM503 1244q0 -70 -50.5 -122.5t-123.5 -52.5t-124.5 51.5t-51.5 123.5t51 123.5t125 51.5t124 -52.5t50 -122.5z" />
    <glyph glyph-name="k" unicode="k" horiz-adv-x="1131" 
d="M474 1419v-898q20 9 87 78t88.5 101t21.5 65q0 61 -89 61v96h494v-96q-185 -6 -370 -224l136 -152q82 -90 174 -174t103 -98.5t11 -38.5v-106q0 -22 -8 -27.5t-36 -5.5h-106q-116 0 -263 170l-243 280v-142q0 -116 25.5 -154.5t103.5 -58.5v-95h-568v95q84 8 114 51
t30 162v851l-150 74v76l354 110h91z" />
    <glyph glyph-name="l" unicode="l" horiz-adv-x="640" 
d="M481 1419v-1111q0 -116 28 -159.5t111 -53.5v-95h-605v95h23q68 0 103 44.5t35 168.5v849l-161 91v58l394 113h72z" />
    <glyph glyph-name="m" unicode="m" horiz-adv-x="2005" 
d="M1374 756q-125 0 -222 -87v-361q0 -97 16.5 -136.5t56.5 -58t69 -18.5h20v-95h-593v95q80 10 108 54t28 159v237q0 87 -13 123t-54.5 62.5t-99.5 26.5t-121.5 -26t-95.5 -64v-359q0 -96 23.5 -154.5t131.5 -58.5v-95h-584v95q81 13 107.5 56t26.5 157v360l-161 104v63
l352 105h104v-169q119 108 197 138t166 30q229 0 297 -181q180 182 390 182t262 -110.5t52 -260.5v-261q0 -97 15.5 -136.5t54 -58t75.5 -18.5v-95h-576v95q79 17 104.5 58t25.5 155v268q0 180 -162 180z" />
    <glyph glyph-name="n" unicode="n" horiz-adv-x="1280" 
d="M656 755q-87 0 -176 -68v-379q0 -111 25.5 -156.5t101.5 -56.5v-95h-567v95q75 0 109.5 45t34.5 168v361l-144 107v55l336 109h104v-165q145 165 334 165q188 0 242.5 -102t54.5 -231v-299q0 -115 26 -156t107 -57v-95h-551v95q74 15 98 59.5t24 153.5v247
q0 105 -35.5 152.5t-123.5 47.5z" />
    <glyph glyph-name="o" unicode="o" horiz-adv-x="1173" 
d="M399 521q0 -447 203 -447q80 0 125.5 68t45.5 192l-2 146q0 41 -31 203.5t-167 162.5q-75 0 -124.5 -61.5t-49.5 -263.5zM1098 482q0 -237 -138 -370.5t-382 -133.5t-373.5 137t-129.5 340t142.5 347t382.5 144q295 0 396.5 -175t101.5 -289z" />
    <glyph glyph-name="p" unicode="p" horiz-adv-x="1259" 
d="M625 749q-68 0 -158 -62v-312q0 -169 49 -235.5t136 -66.5t153 97.5t66 243.5t-73 240.5t-173 94.5zM622 -22q-73 0 -155 18v-73q0 -97 16.5 -136.5t56 -58t68.5 -18.5h22v-95h-612v95q87 0 120 46.5t33 166.5v752l-150 100v62l337 109h109v-144q149 144 319 144
t284 -128.5t114 -337.5t-150 -355.5t-412 -146.5z" />
    <glyph glyph-name="q" unicode="q" horiz-adv-x="1259" 
d="M638 182q88 0 168 64v327q0 116 -21.5 168t-67.5 81.5t-99 29.5q-98 0 -159.5 -94t-61.5 -250t76.5 -241t164.5 -85zM632 946q185 0 359 -87v87h110v-1023q0 -97 17 -136.5t57.5 -58t79.5 -18.5v-95h-620v95h21q83 0 116.5 46.5t33.5 166.5v212q-119 -108 -187 -132.5
t-135 -24.5q-174 0 -288.5 133t-114.5 322q0 228 156.5 370.5t394.5 142.5z" />
    <glyph glyph-name="r" unicode="r" horiz-adv-x="981" 
d="M799 937q74 0 126 -44.5t52 -99.5t-39 -146.5t-89 -91.5q-39 0 -147 100q-36 33 -60 33q-51 0 -102.5 -80t-51.5 -162v-138q0 -131 38.5 -172t149.5 -41v-95h-632v95q80 0 114 45.5t34 167.5v364l-164 103v59l352 106h108v-266q139 263 311 263z" />
    <glyph glyph-name="s" unicode="s" horiz-adv-x="939" 
d="M447 846q-78 0 -118.5 -26t-40.5 -64t30 -64t174 -76t258.5 -110t114.5 -231q0 -134 -97.5 -216.5t-263.5 -82.5t-401 85l-16 240h91q123 -216 313 -216q69 0 116.5 27.5t47.5 73.5t-37 73q-38 25 -206 81t-252.5 126t-84.5 204t107.5 205t265.5 71t339 -69l22 -224h-87
q-39 77 -118 135t-157 58z" />
    <glyph glyph-name="t" unicode="t" horiz-adv-x="768" 
d="M468 1159v-237h276v-121h-276v-430q0 -108 14 -165t131 -57q68 0 134 32v-114q-113 -89 -319 -89q-92 0 -151 37.5t-81.5 87.5t-22.5 150v548h-135v106q148 32 234 109.5t105 142.5h91z" />
    <glyph glyph-name="u" unicode="u" horiz-adv-x="1280" 
d="M631 166q67 0 164 67v356q0 97 -6 128t-36 59t-78 35v93l416 18v-609q0 -110 19.5 -144.5t83.5 -34.5q18 0 45 3v-103l-361 -53h-83v156q-83 -80 -156 -119.5t-177 -39.5t-177.5 49.5t-96.5 124t-23 220.5v212q0 126 -21.5 168t-95.5 59v93l413 18v-524q0 -96 9 -132.5
t51.5 -68t109.5 -31.5z" />
    <glyph glyph-name="v" unicode="v" horiz-adv-x="1109" 
d="M1098 922v-96q-41 -16 -67.5 -48t-76.5 -130l-338 -670h-123l-350 701q-50 99 -74 122t-65 25v96h534v-96q-98 -4 -98 -68q0 -32 40 -110l181 -350l142 278q48 93 48 147q0 98 -114 103v96h361z" />
    <glyph glyph-name="w" unicode="w" horiz-adv-x="1579" 
d="M1576 922v-96q-48 -12 -75 -56.5t-56 -112.5l-291 -679h-116l-230 510l-274 -510h-110l-265 624q-74 175 -93.5 197.5t-54.5 26.5v96h463v-96q-73 -2 -73 -59q0 -34 27 -93l163 -363l161 306l-49 112q-26 57 -47 76t-71 21v96h518v-96q-96 -4 -96 -60q0 -33 31 -100
l151 -321l124 286q26 60 26 94q0 81 -113 101v96h350z" />
    <glyph glyph-name="x" unicode="x" horiz-adv-x="1131" 
d="M24 0v95q85 21 170 99l245 225l-302 344q-37 43 -56 52t-60 11v96h547v-96q-79 -1 -79 -45q0 -27 39 -71l100 -116l78 70q62 57 62 99q0 60 -95 63v96h427v-96q-85 -10 -175 -93l-230 -215l273 -305q84 -95 142 -118v-95h-556v95q86 2 86 58q0 27 -49 86l-89 107l-89 -86
q-70 -65 -70 -106q0 -53 90 -59v-95h-409z" />
    <glyph glyph-name="y" unicode="y" horiz-adv-x="1109" 
d="M1108 922v-96q-52 -3 -85.5 -58t-56.5 -107l-360 -790q-69 -150 -146 -203t-172 -53t-151.5 47t-56.5 112t37 104.5t93 39.5t104 -59t82 -59q36 0 70.5 35.5t53.5 79.5l23 55l-404 739q-43 79 -64 95t-67 22v96h549v-96q-115 -4 -115 -63q0 -27 14 -53l230 -420l152 335
q22 50 22 86q0 113 -117 115v96h365z" />
    <glyph glyph-name="z" unicode="z" horiz-adv-x="1045" 
d="M494 826q-92 0 -164 -21t-155 -187h-106l23 344h79q35 -40 166 -40h626l-1 -86l-546 -741h90q126 0 201.5 41.5t170.5 159.5h109l-41 -296h-906l10 95l422 549q33 43 149 182h-127z" />
    <glyph glyph-name="braceleft" unicode="{" horiz-adv-x="811" 
d="M489 1185q0 -79 24 -179t24 -154q0 -94 -75 -187.5t-251 -137.5q186 -54 257 -146.5t71 -184.5q-1 -56 -25 -156t-24 -171q0 -166 194 -198v-46q-89 0 -146 13t-124 59t-105 113.5t-38 133.5t27 172q27 104 27 170q0 178 -196 210v61q105 15 150.5 79t45.5 134
q-1 70 -27 172t-26 160q0 117 105.5 218.5t306.5 105.5v-46q-195 -36 -195 -195z" />
    <glyph glyph-name="bar" unicode="|" horiz-adv-x="1204" 
d="M498 -385v1804h208v-1804h-208z" />
    <glyph glyph-name="braceright" unicode="}" horiz-adv-x="811" 
d="M322 -140q0 64 -24 164t-24 186t76.5 178.5t249.5 135.5q-186 54 -257.5 146.5t-71.5 184.5q1 57 25 157t24 170q0 159 -193 198v46q89 0 145.5 -13t124 -59t105.5 -114t38 -134t-27 -170t-27 -171q0 -178 196 -210v-60q-105 -15 -150.5 -80t-45.5 -134t26 -171t26 -162
q0 -117 -105.5 -218t-305.5 -105v46q101 16 148 70.5t47 118.5z" />
    <glyph glyph-name="asciitilde" unicode="~" 
d="M764 489q-100 0 -270 70t-229 70q-133 0 -161 -138h-65q11 156 88 253t207 97q79 1 243 -71t233 -72q122 0 153 144h64q-6 -162 -84.5 -257.5t-178.5 -95.5z" />
    <glyph glyph-name="nonbreakingspace" unicode="&#xa0;" horiz-adv-x="533" 
 />
    <glyph glyph-name="exclamdown" unicode="&#xa1;" horiz-adv-x="704" 
d="M322 428h62q29 0 35 -51q4 -23 6 -35l95 -526q9 -46 9 -94q0 -115 -109 -115h-134q-109 0 -109 112q0 52 8 97l96 526q12 66 16.5 76t24.5 10zM538 758q0 -78 -56 -132t-132 -54t-131 55t-55 132t55 132t132 55t132 -55t55 -133z" />
    <glyph glyph-name="cent" unicode="&#xa2;" 
d="M574 846q-77 0 -140 -65t-63 -191t60 -228l172 481q-16 3 -29 3zM89 445q0 213 142.5 357t408.5 144l135 380h101l-139 -386q119 -16 184.5 -76.5t65.5 -127.5t-40 -110.5t-95 -43.5t-86.5 32t-53.5 92t-31 79l-183 -508q88 -88 209 -88t227 107l76 -69
q-60 -121 -188.5 -185t-274.5 -64q-80 0 -150 19l-76 -212h-96l89 248q-103 61 -164 171t-61 241z" />
    <glyph glyph-name="sterling" unicode="&#xa3;" horiz-adv-x="1045" 
d="M803 -118q69 0 69 58q0 26 -46 74t-47 87q0 40 33.5 72.5t75.5 32.5t70.5 -42.5t28.5 -125.5q0 -152 -74.5 -250.5t-211.5 -98.5q-92 0 -158 46.5t-149 153.5q-110 -201 -225 -201t-115 113q0 73 55 137t151 100q26 93 45 301h-222l19 150h214q45 519 164 693.5
t298 174.5q93 0 156 -44.5t63 -124.5t-30.5 -117t-67.5 -37t-64 24.5t-27 75.5l1 57q0 74 -49 74t-69.5 -67t-56.5 -348t-51 -361h243l-26 -150h-241q-24 -155 -87 -279q48 -6 75 -20t107 -86t149 -72z" />
    <glyph glyph-name="currency" unicode="&#xa4;" horiz-adv-x="1024" 
d="M510 977q-126 0 -219 -88.5t-93 -220.5t91 -224t221 -92t221.5 92t91.5 223t-93.5 220.5t-219.5 89.5zM506 1107q136 0 273 -90l138 135l89 -87l-140 -140q87 -115 87 -255t-87 -269l129 -129l-92 -91l-130 129q-132 -85 -267 -85q-136 0 -259 85l-133 -129l-88 91
l131 129q-88 117 -88 265t88 259l-136 135l93 92l133 -135q123 90 259 90z" />
    <glyph glyph-name="yen" unicode="&#xa5;" horiz-adv-x="1493" 
d="M173 662v96h261l-224 425q-40 76 -79.5 93t-102.5 25v96h752v-96q-110 -1 -141 -27t-31 -60t35 -103l235 -449l209 378q55 98 55 144t-38 80t-109 37v96h471v-96q-115 -17 -227 -211l-192 -332h308v-96h-363l-65 -112v-200h428v-96h-426q1 -158 165 -158h30v-96h-754v96
h34q59 0 109 29t52 129h-392v96h394v158l-82 154h-312z" />
    <glyph glyph-name="brokenbar" unicode="&#xa6;" horiz-adv-x="1204" 
d="M498 -385v610h208v-610h-208zM498 809v610h208v-610h-208z" />
    <glyph glyph-name="section" unicode="&#xa7;" horiz-adv-x="1173" 
d="M178 996q0 -83 43 -178.5t289 -353.5t313.5 -372t67.5 -195t-46 -155q132 78 132 269q0 120 -52 225.5t-189 251.5l-230 247q-46 50 -115 148t-89.5 145.5t-20.5 113.5t45 152q-148 -130 -148 -298zM1097 116q0 -242 -152 -375.5t-386 -133.5t-355 63.5t-121 174.5
q0 54 40.5 96.5t100.5 42.5t96 -29t94 -113t105 -110t119 -26t113.5 33.5t41.5 87.5t-53.5 125.5t-257.5 285.5t-311.5 352t-107.5 340q0 201 147 349t425 148q183 0 307.5 -62t124.5 -170q0 -58 -34.5 -95.5t-88.5 -37.5t-82 18.5t-88 83.5q-149 162 -258 162
q-46 0 -81.5 -27.5t-35.5 -68.5q0 -93 156 -272l306 -351q109 -125 145 -179t63.5 -137t27.5 -175z" />
    <glyph glyph-name="dieresis" unicode="&#xa8;" horiz-adv-x="683" 
d="M239 1230q0 -54 -39.5 -93t-93.5 -39t-93 39t-39 93t39 93.5t95 39.5t93.5 -39.5t37.5 -93.5zM698 1230q0 -54 -39 -93t-93 -39t-93.5 38.5t-39.5 93.5t39 94t94 39t93.5 -39.5t38.5 -93.5z" />
    <glyph glyph-name="copyright" unicode="&#xa9;" horiz-adv-x="1536" 
d="M1103 1144v-264h-38q-17 101 -86.5 158.5t-159.5 57.5q-128 0 -193.5 -98.5t-65.5 -288.5t78 -270.5t178 -80.5q146 0 259 139v-71q-121 -126 -309 -126t-309 109t-121 299t125.5 314t314.5 124q86 0 158 -26t85 -26q39 0 46 50h38zM771 1337q-158 0 -305 -79.5
t-232.5 -227.5t-85.5 -313q0 -257 181.5 -438.5t438.5 -181.5t438.5 181.5t181.5 438.5q0 166 -84.5 312.5t-229.5 227t-303 80.5zM768 1426q184 0 350 -92t263 -259.5t97 -357.5q0 -293 -208 -501.5t-502 -208.5t-501.5 208t-207.5 502t208.5 501.5t500.5 207.5z" />
    <glyph glyph-name="ordfeminine" unicode="&#xaa;" horiz-adv-x="747" 
d="M331 866q40 0 112 53v152q-116 -27 -155 -56t-39 -64t21 -60t61 -25zM443 1218q0 79 -93 79q-39 0 -69.5 -19t-30.5 -47t10 -58l-177 -52q-19 43 -19 82q0 75 85.5 115t202.5 40t178 -18t83 -51t22 -97v-202q0 -54 7.5 -70.5t21.5 -16.5t54 15l11 -60q-61 -81 -156 -81
t-127 81q-93 -81 -213 -81q-77 0 -134.5 32.5t-57.5 94.5q0 137 301 201l101 23v90z" />
    <glyph glyph-name="guillemotleft" unicode="&#xab;" horiz-adv-x="1131" 
d="M866 975h204q-61 -209 -245 -459q194 -290 248 -462h-207q-122 264 -278 462q210 280 278 459zM375 975h204q-61 -208 -245 -459q195 -291 248 -462h-207q-122 264 -278 462q210 280 278 459z" />
    <glyph glyph-name="logicalnot" unicode="&#xac;" horiz-adv-x="1365" 
d="M127 1014h1112v-696h-208v487h-904v209z" />
    <glyph glyph-name="registered" unicode="&#xae;" horiz-adv-x="1536" 
d="M891 918q0 167 -177 167h-38v-346q34 -5 53 -5q67 0 114.5 47.5t47.5 136.5zM1106 909q0 -156 -179 -206l137 -250q52 -96 105 -100v-33h-242l-205 368h-46v-198q0 -85 22.5 -109.5t97.5 -27.5v-33h-423v33q57 0 81 22t24 114v473q0 81 -17.5 104t-71.5 28v35h362
q134 0 200 -19.5t110.5 -74.5t44.5 -126zM771 1337q-158 0 -305 -79.5t-232.5 -227.5t-85.5 -313q0 -257 181.5 -438.5t438.5 -181.5t438.5 181.5t181.5 438.5q0 166 -84.5 312.5t-229.5 227t-303 80.5zM768 1426q184 0 350 -92t263 -259.5t97 -357.5q0 -293 -208 -501.5
t-502 -208.5t-501.5 208t-207.5 502t208.5 501.5t500.5 207.5z" />
    <glyph glyph-name="overscore" unicode="&#xaf;" horiz-adv-x="1024" 
d="M-12 1653h1048v-102h-1048v102z" />
    <glyph glyph-name="degree" unicode="&#xb0;" horiz-adv-x="811" 
d="M404 1254q-88 0 -151 -63t-63 -151t62 -152t152 -64t153 63.5t63 153.5t-64 151.5t-152 61.5zM405 1385q140 0 243 -99t103 -244t-101.5 -247t-245.5 -102t-244.5 101.5t-100.5 247.5t103 244.5t243 98.5z" />
    <glyph glyph-name="plusminus" unicode="&#xb1;" horiz-adv-x="1365" 
d="M127 150h1112v-209h-1112v209zM127 959h451v452h209v-452h452v-208h-452v-451h-209v451h-451v208z" />
    <glyph glyph-name="twosuperior" unicode="&#xb2;" horiz-adv-x="661" 
d="M41 652v55q119 89 226.5 210.5t107.5 192.5t-44 102.5t-104 31.5t-129 -57l-45 44q122 126 273 126q94 0 161.5 -49.5t67.5 -122.5q0 -103 -102 -201.5t-218 -188.5h181q52 0 72.5 9.5t35.5 44.5h78l-74 -197h-487z" />
    <glyph glyph-name="threesuperior" unicode="&#xb3;" horiz-adv-x="661" 
d="M328 1357q106 0 165 -43t59 -105q0 -80 -119 -136q157 -58 157 -178q0 -94 -99.5 -175t-257.5 -81q-75 0 -126 19.5t-51 47.5q0 12 16 36.5t52 24.5t80 -32t85 -32t75.5 37t34.5 102t-59 98.5t-217 35.5l12 58q228 3 228 125q0 46 -35 70t-88 24t-144 -71l-45 52
q114 123 277 123z" />
    <glyph glyph-name="acute" unicode="&#xb4;" horiz-adv-x="683" 
d="M368 1444h176q74 0 74 -36q0 -29 -59 -87l-289 -286h-120l104 304q27 76 46 90.5t68 14.5z" />
    <glyph glyph-name="mu" unicode="&#xb5;" horiz-adv-x="1131" 
d="M281 -322q0 -47 -32 -83t-86 -36q-108 0 -108 120q0 41 28 151t36.5 182.5t8.5 246.5v676h278v-684q1 -82 19 -112t66 -30q89 0 164 121v705h278v-625l1 -44q0 -85 16.5 -114t50.5 -29q63 0 77 144h43q-1 -146 -80 -220.5t-177 -74.5q-151 0 -201 157
q-137 -157 -291 -157q-73 0 -149 56q0 -92 29 -198t29 -152z" />
    <glyph glyph-name="paragraph" unicode="&#xb6;" horiz-adv-x="1109" 
d="M639 1321v-1722h-100v871q-290 9 -414 141.5t-124 332.5q0 159 81.5 268t188.5 147t398 38h440v-44h-44q-111 0 -128 -50.5t-17 -152.5v-1551h-99v1722h-182z" />
    <glyph glyph-name="middot" unicode="&#xb7;" horiz-adv-x="683" 
d="M747 842q54 0 93 -38t39 -94t-39 -95t-94 -39t-94 39t-39 95t40 94t94 38z" />
    <glyph glyph-name="cedilla" unicode="&#xb8;" horiz-adv-x="683" 
d="M448 -198q0 -73 -59.5 -116.5t-263.5 -43.5v84q87 5 107 20t20 41q0 50 -74 58l97 169h81l-23 -70q115 -32 115 -142z" />
    <glyph glyph-name="onesuperior" unicode="&#xb9;" horiz-adv-x="661" 
d="M426 1357v-523q0 -81 16 -104.5t76 -23.5h33v-54h-432v54h25q61 0 80 21t19 87v286q0 58 -17 79t-74 21h-33v57q148 36 216 100h91z" />
    <glyph glyph-name="ordmasculine" unicode="&#xba;" horiz-adv-x="768" 
d="M393 834q113 0 113 156q0 307 -129 307q-57 0 -86 -42t-29 -151q0 -270 131 -270zM717 1079q0 -141 -90.5 -221.5t-246.5 -80.5t-242 80.5t-86 201.5t91 209.5t251 88.5t241.5 -90t81.5 -188z" />
    <glyph glyph-name="guillemotright" unicode="&#xbb;" horiz-adv-x="1131" 
d="M763 54h-203q60 209 245 460q-196 291 -249 461h207q123 -264 278 -461q-209 -279 -278 -460zM273 54h-203q60 209 245 460q-196 291 -249 461h207q122 -263 278 -461q-209 -280 -278 -460z" />
    <glyph glyph-name="onequarter" unicode="&#xbc;" horiz-adv-x="1877" 
d="M426 1357v-523q0 -80 16 -104t76 -24h33v-54h-432v54h25q61 0 80 21t19 87v286q0 58 -17 79t-74 21h-33v57q148 36 216 100h91zM613 -36h-145l789 1433h145zM1513 272v274l-221 -274h221zM1779 272v-117h-92v-168h-174v168h-318v102l365 448h127v-433h92z" />
    <glyph glyph-name="onehalf" unicode="&#xbd;" horiz-adv-x="1877" 
d="M426 1357v-523q0 -80 16 -104t76 -24h33v-54h-432v54h25q61 0 80 21t19 87v286q0 58 -17 79t-74 21h-33v57q148 36 216 100h91zM613 -36h-145l789 1433h145zM1191 0v55q119 89 227 211t107 192q0 70 -44 102t-104 32t-129 -57l-45 44q122 126 273 126q94 1 162 -49
t67 -123q0 -103 -102 -201t-218 -189h181q52 -1 72 9t36 45h78l-74 -197h-487z" />
    <glyph glyph-name="threequarters" unicode="&#xbe;" horiz-adv-x="1877" 
d="M328 1357q106 0 165 -43t59 -105q0 -80 -119 -136q157 -58 157 -178q0 -94 -100 -175t-257 -81q-75 -1 -126 19t-51 48q0 12 16 36t52 25q36 0 80 -32t85 -32t75 37t35 102q0 64 -59 98t-217 36l12 58q228 3 228 125q0 46 -35 70t-88 24t-144 -71l-45 52q114 123 277 123
zM618 -36h-145l789 1433h145zM1514 272v274l-221 -274h221zM1780 272v-117h-92v-168h-174v168h-318v102l365 448h127v-433h92z" />
    <glyph glyph-name="questiondown" unicode="&#xbf;" horiz-adv-x="939" 
d="M806 -117q38 0 65.5 -43.5t27.5 -98.5t-62 -95t-173 -40q-181 0 -368 121t-187 320q-1 130 93 195t274 86q46 5 59 18.5t15 57.5t21 44l35 -1l33 1q11 0 13.5 -7t6.5 -73q5 -66 15 -156q10 -91 10 -114t-20.5 -31.5t-153.5 -40.5t-176 -66t-43 -76.5t41.5 -78t92.5 -35.5
q90 0 294 92q49 21 87 21zM795 759q0 -78 -55.5 -132.5t-132.5 -54.5t-131.5 54t-54.5 132t54.5 133t132.5 55t132.5 -54.5t54.5 -132.5z" />
    <glyph glyph-name="Agrave" unicode="&#xc0;" horiz-adv-x="1600" 
d="M878 647l-202 515l-182 -515h384zM360 230q0 -118 134 -135v-95h-482v95q128 25 177 105q21 34 61 138l378 959l-54 117h381l437 -1119q51 -132 98 -166t98 -34v-95h-694v95q61 2 104 29t43 66t-26 104l-91 233h-477l-61 -175q-26 -75 -26 -122zM518 1830q0 32 74 32h175
q51 0 69 -15t45 -90l104 -304h-119l-289 286q-59 59 -59 91z" />
    <glyph glyph-name="Aacute" unicode="&#xc1;" horiz-adv-x="1600" 
d="M878 647l-202 515l-182 -515h384zM360 230q0 -118 134 -135v-95h-482v95q128 25 177 105q21 34 61 138l378 959l-54 117h381l437 -1119q51 -132 98 -166t98 -34v-95h-694v95q61 2 104 29t43 66t-26 104l-91 233h-477l-61 -175q-26 -75 -26 -122zM833 1862h176
q74 0 74 -36q0 -29 -59 -87l-289 -286h-120l104 304q27 77 46 91t68 14z" />
    <glyph glyph-name="Acircumflex" unicode="&#xc2;" horiz-adv-x="1600" 
d="M878 647l-202 515l-182 -515h384zM360 230q0 -118 134 -135v-95h-482v95q128 25 177 105q21 34 61 138l378 959l-54 117h381l437 -1119q51 -132 98 -166t98 -34v-95h-694v95q61 2 104 29t43 66t-26 104l-91 233h-477l-61 -175q-26 -75 -26 -122zM579 1475h-121l204 368
h266l215 -368h-121l-227 189z" />
    <glyph glyph-name="Atilde" unicode="&#xc3;" horiz-adv-x="1600" 
d="M878 647l-202 515l-182 -515h384zM360 230q0 -118 134 -135v-95h-482v95q128 25 177 105q21 34 61 138l378 959l-54 117h381l437 -1119q51 -132 98 -166t98 -34v-95h-694v95q61 2 104 29t43 66t-26 104l-91 233h-477l-61 -175q-26 -75 -26 -122zM942 1511q-72 1 -170 39
t-120 38q-71 0 -88 -76l-123 1q1 145 66 213t143 68t168 -38t125 -39q73 0 90 78h125q-8 -165 -76 -225t-140 -59z" />
    <glyph glyph-name="Adieresis" unicode="&#xc4;" horiz-adv-x="1600" 
d="M878 647l-202 515l-182 -515h384zM360 230q0 -118 134 -135v-95h-482v95q128 25 177 105q21 34 61 138l378 959l-54 117h381l437 -1119q51 -132 98 -166t98 -34v-95h-694v95q61 2 104 29t43 66t-26 104l-91 233h-477l-61 -175q-26 -75 -26 -122zM703 1660q0 -54 -39 -93
q-40 -39 -94 -39t-93 39t-39 93t38 94q38 39 96 39q56 0 94 -40q38 -39 37 -93zM1162 1660q0 -54 -39 -93t-93 -39t-94 38q-39 38 -39 94q0 55 39 94t94 39q56 0 94 -39q38 -40 38 -94z" />
    <glyph glyph-name="Aring" unicode="&#xc5;" horiz-adv-x="1600" 
d="M878 647l-202 515l-182 -515h384zM884 1606q0 46 -33 80.5t-81 34.5t-81.5 -34t-33.5 -81t34 -81t81 -34t80.5 34.5t33.5 80.5zM553 1606q0 89 63.5 153t153.5 64t153.5 -64t63.5 -153q0 -128 -116 -192h84l437 -1119q51 -132 98 -166t98 -34v-95h-694v95q61 2 104 29
t43 66t-26 104l-91 233h-477l-61 -175q-26 -75 -26 -122q0 -118 134 -135v-95h-482v95q128 24 163 81.5t75 161.5l378 959l-54 117h95q-116 62 -116 192z" />
    <glyph glyph-name="AE" unicode="&#xc6;" horiz-adv-x="2112" 
d="M818 753l-134 549l-164 -549h298zM787 0v95q106 3 132 34t26 65t-20 115l-85 349h-355l-89 -306q-18 -62 -18 -120t45.5 -95.5t96.5 -41.5v-95h-487v95q89 7 126 53t96 210l239 665q43 118 43 172q0 108 -122 108q-11 0 -26 -1v95h1427l63 -307h-136
q-173 169 -262.5 190.5t-229.5 21.5h-213l133 -550h213q155 0 205 44t52 137h129l80 -440h-135q-44 106 -101 134.5t-205 28.5h-210l100 -399q20 -78 47 -117.5t155 -39.5q127 0 212 51t217 185h138l-66 -336h-1215z" />
    <glyph glyph-name="Ccedilla" unicode="&#xc7;" horiz-adv-x="1643" 
d="M1104 -221q0 -98 -96 -138.5t-358 -40.5v93q132 6 156.5 23.5t24.5 40.5q0 62 -86 68l103 151q-327 25 -537.5 207.5t-210.5 488.5t217.5 530t616.5 224q293 0 557 -128l42 -324h-152q-42 119 -169.5 238t-293.5 119q-202 0 -315 -162.5t-113 -452.5t131.5 -469.5
t340.5 -179.5q312 0 433 390h154v-343q-241 -134 -583 -142l-15 -36q153 -37 153 -157z" />
    <glyph glyph-name="Egrave" unicode="&#xc8;" horiz-adv-x="1536" 
d="M1406 1397v-296h-135q-107 135 -185 168t-192 33h-289v-521h193q162 -1 227 33t93 140h136v-452h-136q-16 67 -56 112q-40 44 -88 58q-49 14 -173 14h-196v-375q0 -88 21 -129q45 -87 209 -87t217 19t128 65t176 168h142l-61 -347h-1375v95q136 -1 168 79q14 36 14 144
v761q0 110 -16 147q-33 76 -166 76v95h1344zM498 1830q0 32 74 32h175q51 0 69 -15t45 -90l104 -304h-119l-289 286q-59 59 -59 91z" />
    <glyph glyph-name="Eacute" unicode="&#xc9;" horiz-adv-x="1536" 
d="M1406 1397v-296h-135q-107 135 -185 168t-192 33h-289v-521h193q162 -1 227 33t93 140h136v-452h-136q-16 67 -56 112q-40 44 -88 58q-49 14 -173 14h-196v-375q0 -88 21 -129q45 -87 209 -87t217 19t128 65t176 168h142l-61 -347h-1375v95q136 -1 168 79q14 36 14 144
v761q0 110 -16 147q-33 76 -166 76v95h1344zM764 1862h176q74 0 74 -36q0 -29 -59 -87l-289 -286h-120l104 304q27 77 46 91t68 14z" />
    <glyph glyph-name="Ecircumflex" unicode="&#xca;" horiz-adv-x="1536" 
d="M1406 1397v-296h-135q-107 135 -185 168t-192 33h-289v-521h193q162 -1 227 33t93 140h136v-452h-136q-16 67 -56 112q-40 44 -88 58q-49 14 -173 14h-196v-375q0 -88 21 -129q45 -87 209 -87t217 19t128 65t176 168h142l-61 -347h-1375v95q136 -1 168 79q14 36 14 144
v761q0 110 -16 147q-33 76 -166 76v95h1344zM558 1475h-121l204 368h266l215 -368h-121l-227 189z" />
    <glyph glyph-name="Edieresis" unicode="&#xcb;" horiz-adv-x="1536" 
d="M1406 1397v-296h-135q-107 135 -185 168t-192 33h-289v-521h193q162 -1 227 33t93 140h136v-452h-136q-16 67 -56 112q-40 44 -88 58q-49 14 -173 14h-196v-375q0 -88 21 -129q45 -87 209 -87t217 19t128 65t176 168h142l-61 -347h-1375v95q136 -1 168 79q14 36 14 144
v761q0 110 -16 147q-33 76 -166 76v95h1344zM683 1660q0 -54 -39 -93q-40 -39 -94 -39t-93 39t-39 93t38 94q38 39 96 39q56 0 94 -40q38 -39 37 -93zM1142 1660q0 -54 -39 -93t-93 -39t-94 38q-39 38 -39 94q0 55 39 94t94 39q56 0 94 -39q38 -40 38 -94z" />
    <glyph glyph-name="Igrave" unicode="&#xcc;" horiz-adv-x="832" 
d="M776 0h-720v95q130 1 162 79q14 36 14 144v761q0 111 -16 149q-33 74 -160 74v95h720v-95q-134 0 -167 -78q-15 -36 -15 -145v-761q0 -110 17 -148q34 -75 165 -75v-95zM97 1830q0 32 74 32h175q52 0 70 -15t44 -90l104 -304h-119l-289 286q-59 59 -59 91z" />
    <glyph glyph-name="Iacute" unicode="&#xcd;" horiz-adv-x="832" 
d="M776 0h-720v95q130 1 162 79q14 36 14 144v761q0 111 -16 149q-33 74 -160 74v95h720v-95q-134 0 -167 -78q-15 -36 -15 -145v-761q0 -110 17 -148q34 -75 165 -75v-95zM449 1862h176q74 0 74 -36q0 -29 -59 -87l-289 -286h-120l104 304q27 77 46 91t68 14z" />
    <glyph glyph-name="Icircumflex" unicode="&#xce;" horiz-adv-x="832" 
d="M776 0h-720v95q130 1 162 79q14 36 14 144v761q0 111 -16 149q-33 74 -160 74v95h720v-95q-134 0 -167 -78q-15 -36 -15 -145v-761q0 -110 17 -148q34 -75 165 -75v-95zM195 1475h-121l204 368h266l215 -368h-121l-227 189z" />
    <glyph glyph-name="Idieresis" unicode="&#xcf;" horiz-adv-x="832" 
d="M776 0h-720v95q130 1 162 79q14 36 14 144v761q0 111 -16 149q-33 74 -160 74v95h720v-95q-134 0 -167 -78q-15 -36 -15 -145v-761q0 -110 17 -148q34 -75 165 -75v-95zM339 1660q0 -54 -39 -93q-40 -39 -94 -39t-93 39t-39 93t38 94q38 39 96 39q56 0 94 -40
q38 -39 37 -93zM798 1660q0 -54 -39 -93t-93 -39t-94 38q-39 38 -39 94q0 55 39 94t94 39q56 0 94 -39q38 -40 38 -94z" />
    <glyph glyph-name="Eth" unicode="&#xd0;" horiz-adv-x="1792" 
d="M603 686v-347q0 -139 54.5 -190t190.5 -51t230 55t157 185t63 317t-47.5 320.5t-135.5 212t-180.5 96.5t-277.5 18h-54v-520h347v-96h-347zM241 686h-180v96h180v297q0 110 -24 166.5t-156 56.5v95h849q162 0 285 -26t238.5 -113.5t183 -231.5t67.5 -314t-70 -314
t-208 -244.5t-277 -127t-348 -26.5h-720v95q136 0 158 58t22 165v368z" />
    <glyph glyph-name="Ntilde" unicode="&#xd1;" horiz-adv-x="1621" 
d="M586 95v-95h-554v95q134 1 174 71t40 254l-10 775q-112 95 -210 107v95h505l772 -874l-12 393q-9 256 -51 318t-184 68v95h529v-95q-85 -12 -119 -32t-51 -68t-17 -192l12 -650q2 -87 20 -178q18 -92 18 -132t-5 -70h-140l-973 1105l15 -619q7 -261 71 -316t170 -55z
M962 1511q-72 1 -170 39t-120 38q-71 0 -88 -76l-123 1q1 145 66 213t143 68t168 -38t125 -39q73 0 90 78h125q-8 -165 -76 -225t-140 -59z" />
    <glyph glyph-name="Ograve" unicode="&#xd2;" horiz-adv-x="1792" 
d="M1290 680q0 271 -103 455t-291 184q-188 1 -291 -149t-103 -456t116 -474t294 -168q116 0 214 80t131 206q33 124 33 322zM1687 684q1 -165 -85 -327q-86 -161 -268 -273t-450 -112q-350 0 -564 197t-215 518q0 321 236 530t561 209q236 0 426 -102t274 -254t85 -386z
M584 1830q0 32 74 32h175q51 0 69 -15t45 -90l104 -304h-119l-289 286q-59 59 -59 91z" />
    <glyph glyph-name="Oacute" unicode="&#xd3;" horiz-adv-x="1792" 
d="M1290 680q0 271 -103 455t-291 184q-188 1 -291 -149t-103 -456t116 -474t294 -168q116 0 214 80t131 206q33 124 33 322zM1687 684q1 -165 -85 -327q-86 -161 -268 -273t-450 -112q-350 0 -564 197t-215 518q0 321 236 530t561 209q236 0 426 -102t274 -254t85 -386z
M959 1862h176q74 0 74 -36q0 -29 -59 -87l-289 -286h-120l104 304q27 77 46 91t68 14z" />
    <glyph glyph-name="Ocircumflex" unicode="&#xd4;" horiz-adv-x="1792" 
d="M1290 680q0 271 -103 455t-291 184q-188 1 -291 -149t-103 -456t116 -474t294 -168q116 0 214 80t131 206q33 124 33 322zM1687 684q1 -165 -85 -327q-86 -161 -268 -273t-450 -112q-350 0 -564 197t-215 518q0 321 236 530t561 209q236 0 426 -102t274 -254t85 -386z
M675 1475h-121l204 368h266l215 -368h-121l-227 189z" />
    <glyph glyph-name="Otilde" unicode="&#xd5;" horiz-adv-x="1792" 
d="M1290 680q0 271 -103 455t-291 184q-188 1 -291 -149t-103 -456t116 -474t294 -168q116 0 214 80t131 206q33 124 33 322zM1687 684q1 -165 -85 -327q-86 -161 -268 -273t-450 -112q-350 0 -564 197t-215 518q0 321 236 530t561 209q236 0 426 -102t274 -254t85 -386z
M1038 1531q-72 1 -169 39q-98 38 -120 38q-71 0 -88 -76l-123 1q1 145 66 213q66 68 144 68t168 -38t124 -39q73 0 90 78h125q-9 -165 -77 -225t-140 -59z" />
    <glyph glyph-name="Odieresis" unicode="&#xd6;" horiz-adv-x="1792" 
d="M1290 680q0 271 -103 455t-291 184q-188 1 -291 -149t-103 -456t116 -474t294 -168q116 0 214 80t131 206q33 124 33 322zM1687 684q1 -165 -85 -327q-86 -161 -268 -273t-450 -112q-350 0 -564 197t-215 518q0 321 236 530t561 209q236 0 426 -102t274 -254t85 -386z
M799 1660q0 -54 -39 -93q-40 -39 -94 -39t-93 39t-39 93t38 94q38 39 96 39q56 0 94 -40q38 -39 37 -93zM1258 1660q0 -54 -39 -93t-93 -39t-94 38q-39 38 -39 94q0 55 39 94t94 39q56 0 94 -39q38 -40 38 -94z" />
    <glyph glyph-name="multiply" unicode="&#xd7;" horiz-adv-x="1365" 
d="M159 1041l147 147l377 -378l377 378l148 -148l-376 -377l373 -373l-147 -147l-374 373l-374 -373l-148 147l374 373z" />
    <glyph glyph-name="Oslash" unicode="&#xd8;" horiz-adv-x="1792" 
d="M912 72q143 0 260.5 125t117.5 448q0 222 -51 372l-641 -748q49 -86 133.5 -141.5t180.5 -55.5zM884 1319q-176 0 -279 -149t-103 -431q0 -208 53 -370l641 750q-109 200 -312 200zM105 675q0 333 236 542t561 209q251 0 455 -118l121 142l74 -67l-112 -131
q248 -188 248 -524t-223.5 -546t-568.5 -210q-272 0 -458 109l-120 -140l-73 65l112 131q-252 205 -252 538z" />
    <glyph glyph-name="Ugrave" unicode="&#xd9;" horiz-adv-x="1707" 
d="M962 135q431 0 431 433l-8 467q-1 141 -51 201t-169 66v95h512v-95q-153 -26 -176 -124q-11 -46 -11 -156v-447q0 -171 -18 -255t-86 -168q-149 -180 -513 -180t-510 152q-75 78 -104 166q-29 90 -29 301v488q0 112 -17 150q-33 73 -145 73h-20v95h730v-95h-28
q-48 0 -89 -18t-57 -56q-16 -37 -17 -149v-485q-1 -184 35 -273t124 -137t216 -49zM581 1830q0 32 74 32h175q52 0 70 -15t44 -90l104 -304h-119l-289 286q-59 59 -59 91z" />
    <glyph glyph-name="Uacute" unicode="&#xda;" horiz-adv-x="1707" 
d="M962 135q431 0 431 433l-8 467q-1 141 -51 201t-169 66v95h512v-95q-153 -26 -176 -124q-11 -46 -11 -156v-447q0 -171 -18 -255t-86 -168q-149 -180 -513 -180t-510 152q-75 78 -104 166q-29 90 -29 301v488q0 112 -17 150q-33 73 -145 73h-20v95h730v-95h-28
q-48 0 -89 -18t-57 -56q-16 -37 -17 -149v-485q-1 -184 35 -273t124 -137t216 -49zM967 1862h176q74 0 74 -36q0 -29 -59 -87l-289 -286h-120l104 304q27 77 46 91t68 14z" />
    <glyph glyph-name="Ucircumflex" unicode="&#xdb;" horiz-adv-x="1707" 
d="M962 135q431 0 431 433l-8 467q-1 141 -51 201t-169 66v95h512v-95q-153 -26 -176 -124q-11 -46 -11 -156v-447q0 -171 -18 -255t-86 -168q-149 -180 -513 -180t-510 152q-75 78 -104 166q-29 90 -29 301v488q0 112 -17 150q-33 73 -145 73h-20v95h730v-95h-28
q-48 0 -89 -18t-57 -56q-16 -37 -17 -149v-485q-1 -184 35 -273t124 -137t216 -49zM641 1475h-121l204 368h266l215 -368h-121l-227 189z" />
    <glyph glyph-name="Udieresis" unicode="&#xdc;" horiz-adv-x="1707" 
d="M962 135q431 0 431 433l-8 467q-1 141 -51 201t-169 66v95h512v-95q-153 -26 -176 -124q-11 -46 -11 -156v-447q0 -171 -18 -255t-86 -168q-149 -180 -513 -180t-510 152q-75 78 -104 166q-29 90 -29 301v488q0 112 -17 150q-33 73 -145 73h-20v95h730v-95h-28
q-48 0 -89 -18t-57 -56q-16 -37 -17 -149v-485q-1 -184 35 -273t124 -137t216 -49zM802 1660q0 -54 -39 -93t-93 -39t-94 39q-39 39 -39 93q1 54 39 94q38 39 94 39t94 -40q38 -39 38 -93zM1261 1660q0 -54 -39 -93q-40 -39 -94 -39t-93 38t-39 94q0 55 39 94t94 39t93 -39
q38 -40 39 -94z" />
    <glyph glyph-name="Yacute" unicode="&#xdd;" horiz-adv-x="1493" 
d="M780 1397v-95q-109 -2 -140 -28t-31 -60t36 -103l235 -449l211 378q52 93 52 139q0 116 -146 123v95h469v-95q-85 -16 -142 -91t-84 -122l-318 -539v-232q0 -114 20 -152q36 -71 145 -71h32v-95h-747v95h33q115 0 147 74q16 37 16 149v190l-357 675q-39 77 -93 100
q-26 11 -89 19v95h751zM828 1862h176q74 0 74 -36q0 -29 -59 -87l-289 -286h-120l104 304q27 77 46 91t68 14z" />
    <glyph glyph-name="Thorn" unicode="&#xde;" horiz-adv-x="1493" 
d="M746 404q129 0 182.5 18t96 86t42.5 195t-82.5 207.5t-255.5 80.5h-128l-1 -587h146zM601 1087h244q241 0 348 -34.5t184 -131t77 -225.5t-83 -226.5t-219 -129.5t-360 -32h-192q2 -102 16.5 -137.5t54.5 -55t93 -19.5h26v-96h-737v96h23q48 0 89.5 18.5t57.5 55.5
t16 148v761q0 111 -25 166.5t-138 55.5h-23v96h733v-96h-22q-54 0 -94 -20.5t-54.5 -55t-14.5 -112.5v-26z" />
    <glyph glyph-name="germandbls" unicode="&#xdf;" horiz-adv-x="1301" 
d="M195 802h-152v120q90 5 113 26t44 97t51 135t133 149.5t334 90.5t341 -97t110 -197t-74 -179t-205 -125q141 -22 243.5 -130t102.5 -292t-102.5 -303t-263.5 -119q-105 0 -160.5 56t-55.5 119q0 35 22 62t59 27t56 -20t36 -68t28 -59.5t37 -11.5t51 35.5t25 93.5
q0 178 -92.5 341.5t-221.5 182.5v84q214 52 214 269q0 94 -53 162t-130 68t-122.5 -33t-58.5 -75t-13 -135v-774q0 -102 6 -131t33.5 -53t66.5 -29v-89h-544v95q87 14 114.5 54.5t27.5 152.5v500z" />
    <glyph glyph-name="agrave" unicode="&#xe0;" horiz-adv-x="1152" 
d="M514 127q64 0 170 88v254q-168 -43 -234 -91t-65 -106q0 -60 32 -102q33 -42 97 -43zM360 -22q-122 0 -208 56t-87 164q0 221 464 328l155 37v151q0 68 -44 100t-103 32t-105 -32t-46 -94q0 -34 15 -81l-272 -87q-29 73 -29 136q0 127 132 193t359 66q143 -1 234 -33
t123 -88t31 -155v-337q0 -90 11 -118t33 -27q22 0 83 24l17 -99q-93 -136 -237 -136t-198 136q-144 -136 -328 -136zM313 1412q0 32 74 32h175q52 0 70 -15t44 -90l104 -304h-119l-289 286q-59 59 -59 91z" />
    <glyph glyph-name="aacute" unicode="&#xe1;" horiz-adv-x="1152" 
d="M514 127q64 0 170 88v254q-168 -43 -234 -91t-65 -106q0 -60 32 -102q33 -42 97 -43zM360 -22q-122 0 -208 56t-87 164q0 221 464 328l155 37v151q0 68 -44 100t-103 32t-105 -32t-46 -94q0 -34 15 -81l-272 -87q-29 73 -29 136q0 127 132 193t359 66q143 -1 234 -33
t123 -88t31 -155v-337q0 -90 11 -118t33 -27q22 0 83 24l17 -99q-93 -136 -237 -136t-198 136q-144 -136 -328 -136zM578 1444h176q74 0 74 -36q0 -29 -59 -87l-289 -286h-120l104 304q27 77 46 91t68 14z" />
    <glyph glyph-name="acircumflex" unicode="&#xe2;" horiz-adv-x="1152" 
d="M514 127q64 0 170 88v254q-168 -43 -234 -91t-65 -106q0 -60 32 -102q33 -42 97 -43zM360 -22q-122 0 -208 56t-87 164q0 221 464 328l155 37v151q0 68 -44 100t-103 32t-105 -32t-46 -94q0 -34 15 -81l-272 -87q-29 73 -29 136q0 127 132 193t359 66q143 -1 234 -33
t123 -88t31 -155v-337q0 -90 11 -118t33 -27q22 0 83 24l17 -99q-93 -136 -237 -136t-198 136q-144 -136 -328 -136zM361 1040h-121l204 368h266l215 -368h-121l-227 189z" />
    <glyph glyph-name="atilde" unicode="&#xe3;" horiz-adv-x="1152" 
d="M514 127q64 0 170 88v254q-168 -43 -234 -91t-65 -106q0 -60 32 -102q33 -42 97 -43zM360 -22q-122 0 -208 56t-87 164q0 221 464 328l155 37v151q0 68 -44 100t-103 32t-105 -32t-46 -94q0 -34 15 -81l-272 -87q-29 73 -29 136q0 127 132 193t359 66q143 -1 234 -33
t123 -88t31 -155v-337q0 -90 11 -118t33 -27q22 0 83 24l17 -99q-93 -136 -237 -136t-198 136q-144 -136 -328 -136zM736 1080q-72 0 -169 38q-98 38 -120 39q-71 0 -88 -76l-123 1q1 144 66 212q66 68 144 69q78 -1 168 -39t124 -38q73 0 90 78h125q-9 -164 -77 -224
t-140 -60z" />
    <glyph glyph-name="adieresis" unicode="&#xe4;" horiz-adv-x="1152" 
d="M514 127q64 0 170 88v254q-168 -43 -234 -91t-65 -106q0 -60 32 -102q33 -42 97 -43zM360 -22q-122 0 -208 56t-87 164q0 221 464 328l155 37v151q0 68 -44 100t-103 32t-105 -32t-46 -94q0 -34 15 -81l-272 -87q-29 73 -29 136q0 127 132 193t359 66q143 -1 234 -33
t123 -88t31 -155v-337q0 -90 11 -118t33 -27q22 0 83 24l17 -99q-93 -136 -237 -136t-198 136q-144 -136 -328 -136zM497 1230q0 -54 -39 -93q-40 -39 -94 -39t-93 39t-39 93t38 94q38 39 96 39q56 0 94 -40q38 -39 37 -93zM956 1230q0 -54 -39 -93t-93 -39t-94 38
q-39 38 -39 94q0 55 39 94t94 39q56 0 94 -39q38 -40 38 -94z" />
    <glyph glyph-name="aring" unicode="&#xe5;" horiz-adv-x="1152" 
d="M514 127q64 0 170 88v254q-168 -43 -234 -91t-65 -106q0 -60 32 -102q33 -42 97 -43zM360 -22q-122 0 -208 56t-87 164q0 221 464 328l155 37v151q0 68 -44 100t-103 32t-105 -32t-46 -94q0 -34 15 -81l-272 -87q-29 73 -29 136q0 127 132 193t359 66q143 -1 234 -33
t123 -88t31 -155v-337q0 -90 11 -118t33 -27q22 0 83 24l17 -99q-93 -136 -237 -136t-198 136q-144 -136 -328 -136zM694 1230q0 46 -32 78q-32 34 -79 34t-80 -32t-33 -80q0 -46 33 -78t79 -33q46 1 79 33t33 78zM787 1230q0 -82 -59 -144t-145 -61t-146 61t-60 144t60 146
q61 60 147 60t144 -62t59 -144z" />
    <glyph glyph-name="ae" unicode="&#xe6;" horiz-adv-x="1664" 
d="M503 130q67 0 166 71v266q-173 -37 -233.5 -85t-60.5 -108t30.5 -102t97.5 -42zM1120 846q-154 0 -154 -231v-30l320 52q-31 209 -166 209zM1162 946q179 0 297.5 -87t144.5 -272l-637 -97q2 -133 32 -193t93 -89t131 -29q159 0 315 127l63 -70q-60 -108 -188.5 -183
t-276.5 -75t-234.5 34t-170.5 114q-204 -148 -391 -148q-131 0 -205.5 67t-74.5 169t114.5 184t336.5 132l158 35v128q0 158 -136 158q-62 0 -110 -31t-48 -77t12 -106l-263 -86q-31 46 -31 121q0 125 119 199.5t320 74.5t313 -102q138 102 317 102z" />
    <glyph glyph-name="ccedilla" unicode="&#xe7;" 
d="M343 -310q172 0 172 68q0 47 -119 63l104 157q-192 6 -310 144t-118 335t139.5 343t413.5 146q171 0 258 -65t87 -156q0 -56 -40 -99.5t-99 -43.5q-96 0 -143 145q-23 67 -51 93q-29 26 -93 26t-127 -66.5t-63 -208.5t97.5 -262t228.5 -120t237 107l76 -69
q-97 -196 -369 -242l-20 -37q152 -49 152 -160q0 -90 -95.5 -140.5t-265.5 -50.5q-24 0 -52 2v91z" />
    <glyph glyph-name="egrave" unicode="&#xe8;" 
d="M522 850q-76 0 -124 -64t-48 -167h339q3 111 -45 171q-46 60 -122 60zM521 -22q-211 0 -329 130t-118 343q0 211 136 353t344 142q206 0 326 -112t124 -311h-648q6 -125 102 -228t214 -103t253 101l82 -60q-196 -255 -486 -255zM289 1412q0 32 74 32h175q52 0 70 -15
t44 -90l104 -304h-119l-289 286q-59 59 -59 91z" />
    <glyph glyph-name="eacute" unicode="&#xe9;" 
d="M522 850q-76 0 -124 -64t-48 -167h339q3 111 -45 171q-46 60 -122 60zM521 -22q-211 0 -329 130t-118 343q0 211 136 353t344 142q206 0 326 -112t124 -311h-648q6 -125 102 -228t214 -103t253 101l82 -60q-196 -255 -486 -255zM555 1444h176q74 0 74 -36q0 -29 -59 -87
l-289 -286h-120l104 304q27 77 46 91t68 14z" />
    <glyph glyph-name="ecircumflex" unicode="&#xea;" 
d="M522 850q-76 0 -124 -64t-48 -167h339q3 111 -45 171q-46 60 -122 60zM521 -22q-211 0 -329 130t-118 343q0 211 136 353t344 142q206 0 326 -112t124 -311h-648q6 -125 102 -228t214 -103t253 101l82 -60q-196 -255 -486 -255zM319 1040h-121l204 368h266l215 -368h-121
l-227 189z" />
    <glyph glyph-name="edieresis" unicode="&#xeb;" 
d="M522 850q-76 0 -124 -64t-48 -167h339q3 111 -45 171q-46 60 -122 60zM521 -22q-211 0 -329 130t-118 343q0 211 136 353t344 142q206 0 326 -112t124 -311h-648q6 -125 102 -228t214 -103t253 101l82 -60q-196 -255 -486 -255zM444 1230q0 -54 -39 -93t-93 -39t-94 39
q-39 39 -39 93q1 54 39 94q38 39 94 39t94 -40q38 -39 38 -93zM903 1230q0 -54 -39 -93q-40 -39 -94 -39t-93 38t-39 94q0 55 39 94t94 39t93 -39q38 -40 39 -94z" />
    <glyph glyph-name="igrave" unicode="&#xec;" horiz-adv-x="683" 
d="M496 940v-632q0 -110 25 -154t104 -59v-95h-568v95q75 0 109 45t35 168v364l-144 82v84l345 102h94zM68 1412q0 32 74 32h175q51 0 69 -15t45 -90l104 -304h-119l-289 286q-59 59 -59 91z" />
    <glyph glyph-name="iacute" unicode="&#xed;" horiz-adv-x="683" 
d="M496 940v-632q0 -110 25 -154t104 -59v-95h-568v95q75 0 109 45t35 168v364l-144 82v84l345 102h94zM322 1444h176q74 0 74 -36q0 -29 -59 -87l-289 -286h-120l104 304q27 77 46 91t68 14z" />
    <glyph glyph-name="icircumflex" unicode="&#xee;" horiz-adv-x="683" 
d="M496 940v-632q0 -110 25 -154t104 -59v-95h-568v95q75 0 109 45t35 168v364l-144 82v84l345 102h94zM120 1040h-121l204 368h266l215 -368h-121l-227 189z" />
    <glyph glyph-name="idieresis" unicode="&#xef;" horiz-adv-x="683" 
d="M496 940v-632q0 -110 25 -154t104 -59v-95h-568v95q75 0 109 45t35 168v364l-144 82v84l345 102h94zM244 1230q0 -54 -39 -93t-93 -39t-94 39q-39 39 -39 93q1 54 39 94q38 39 94 39t94 -40q38 -39 38 -93zM703 1230q0 -54 -39 -93q-40 -39 -94 -39t-93 38t-39 94
q0 55 39 94t94 39t93 -39q38 -40 39 -94z" />
    <glyph glyph-name="eth" unicode="&#xf0;" horiz-adv-x="1152" 
d="M583 73q178 0 178 279q0 124 -20.5 257t-68 184t-112.5 51q-173 0 -173 -333q0 -438 196 -438zM1083 523q0 -207 -106.5 -376t-408.5 -169q-252 0 -378 134t-126 334t138.5 348.5t365.5 148.5q51 0 84 -17q-56 131 -131 207l-321 -147l-49 92l289 133q-95 89 -199 119
l81 81q201 -50 308 -113l248 113l49 -94l-193 -88q169 -112 259 -305.5t90 -400.5z" />
    <glyph glyph-name="ntilde" unicode="&#xf1;" horiz-adv-x="1280" 
d="M656 755q-87 0 -176 -68v-379q0 -110 26 -156t101 -57v-95h-567v95q76 0 110 45t34 168v361l-144 107v55l336 109h104v-165q145 165 334 165q188 0 262 -138q35 -66 35 -195v-299q0 -115 26 -156t107 -57v-95h-551v95q74 15 98 59t24 154v247q0 105 -36 153
q-35 48 -123 47zM784 1080q-72 0 -169 38q-98 38 -120 39q-71 0 -88 -76l-123 1q1 144 66 212q66 68 144 69q78 -1 168 -39t124 -38q73 0 90 78h125q-9 -164 -77 -224t-140 -60z" />
    <glyph glyph-name="ograve" unicode="&#xf2;" horiz-adv-x="1173" 
d="M399 521q0 -447 203 -447q80 0 126 68t45 192l-2 146q0 41 -21 151q-41 215 -177 215q-75 0 -125 -62t-49 -263zM1098 482q0 -236 -138 -370t-382 -134t-374 137t-129 340t143 347t382 144q294 0 426 -226q72 -124 72 -238zM335 1412q0 32 74 32h175q52 0 70 -15t44 -90
l104 -304h-119l-289 286q-59 59 -59 91z" />
    <glyph glyph-name="oacute" unicode="&#xf3;" horiz-adv-x="1173" 
d="M399 521q0 -447 203 -447q80 0 126 68t45 192l-2 146q0 41 -21 151q-41 215 -177 215q-75 0 -125 -62t-49 -263zM1098 482q0 -236 -138 -370t-382 -134t-374 137t-129 340t143 347t382 144q294 0 426 -226q72 -124 72 -238zM589 1444h176q74 0 74 -36q0 -29 -59 -87
l-289 -286h-120l104 304q27 77 46 91t68 14z" />
    <glyph glyph-name="ocircumflex" unicode="&#xf4;" horiz-adv-x="1173" 
d="M399 521q0 -447 203 -447q80 0 126 68t45 192l-2 146q0 41 -21 151q-41 215 -177 215q-75 0 -125 -62t-49 -263zM1098 482q0 -236 -138 -370t-382 -134t-374 137t-129 340t143 347t382 144q294 0 426 -226q72 -124 72 -238zM365 1040h-121l204 368h266l215 -368h-121
l-227 189z" />
    <glyph glyph-name="otilde" unicode="&#xf5;" horiz-adv-x="1173" 
d="M399 521q0 -447 203 -447q80 0 126 68t45 192l-2 146q0 41 -21 151q-41 215 -177 215q-75 0 -125 -62t-49 -263zM1098 482q0 -236 -138 -370t-382 -134t-374 137t-129 340t143 347t382 144q294 0 426 -226q72 -124 72 -238zM728 1080q-72 0 -169 38q-98 38 -120 39
q-71 0 -88 -76l-123 1q1 144 66 212q66 68 144 69q78 -1 168 -39t124 -38q73 0 90 78h125q-9 -164 -77 -224t-140 -60z" />
    <glyph glyph-name="odieresis" unicode="&#xf6;" horiz-adv-x="1173" 
d="M399 521q0 -447 203 -447q80 0 126 68t45 192l-2 146q0 41 -21 151q-41 215 -177 215q-75 0 -125 -62t-49 -263zM1098 482q0 -236 -138 -370t-382 -134t-374 137t-129 340t143 347t382 144q294 0 426 -226q72 -124 72 -238zM490 1230q0 -54 -39 -93t-93 -39t-94 39
q-39 39 -39 93q1 54 39 94q38 39 94 39t94 -40q38 -39 38 -93zM949 1230q0 -54 -39 -93q-40 -39 -94 -39t-93 38t-39 94q0 55 39 94t94 39t93 -39q38 -40 39 -94z" />
    <glyph glyph-name="divide" unicode="&#xf7;" horiz-adv-x="1365" 
d="M807 253q0 -52 -37 -89t-89 -37t-89 37t-37 89t37 89t89 37t89 -37t37 -89zM127 766h1112v-200h-1112v200zM804 1085q0 -52 -36 -88.5t-88 -36.5t-88.5 36t-36.5 88t36.5 89t88.5 37t88 -36.5t36 -88.5z" />
    <glyph glyph-name="oslash" unicode="&#xf8;" horiz-adv-x="1173" 
d="M600 74q79 0 126.5 64.5t47.5 249.5q0 103 -14 192l-322 -370q49 -136 162 -136zM573 846q-174 0 -174 -293q0 -148 14 -231l322 371q-48 153 -162 153zM75 446q0 204 140.5 352t381.5 148q169 0 291 -77l107 124l72 -60l-107 -124q138 -146 138 -347t-132.5 -342.5
t-385.5 -141.5q-163 0 -285 67l-94 -108l-68 63l87 100q-145 142 -145 346z" />
    <glyph glyph-name="ugrave" unicode="&#xf9;" horiz-adv-x="1280" 
d="M631 166q67 0 164 67v356q0 97 -6 128t-36 59t-78 35v93l416 18v-609q-1 -111 19 -145t84 -34q18 0 45 3v-103l-361 -53h-83v156q-83 -79 -155 -119t-178 -40q-104 0 -178 50t-96 124q-23 74 -23 220v212q1 126 -21 168t-96 59v93l413 18v-524q0 -96 9 -132
q10 -36 52 -68t109 -32zM350 1412q0 32 74 32h175q51 0 69 -15t45 -90l104 -304h-119l-289 286q-59 59 -59 91z" />
    <glyph glyph-name="uacute" unicode="&#xfa;" horiz-adv-x="1280" 
d="M631 166q67 0 164 67v356q0 97 -6 128t-36 59t-78 35v93l416 18v-609q-1 -111 19 -145t84 -34q18 0 45 3v-103l-361 -53h-83v156q-83 -79 -155 -119t-178 -40q-104 0 -178 50t-96 124q-23 74 -23 220v212q1 126 -21 168t-96 59v93l413 18v-524q0 -96 9 -132
q10 -36 52 -68t109 -32zM664 1444h176q74 0 74 -36q0 -29 -59 -87l-289 -286h-120l104 304q27 77 46 91t68 14z" />
    <glyph glyph-name="ucircumflex" unicode="&#xfb;" horiz-adv-x="1280" 
d="M631 166q67 0 164 67v356q0 97 -6 128t-36 59t-78 35v93l416 18v-609q-1 -111 19 -145t84 -34q18 0 45 3v-103l-361 -53h-83v156q-83 -79 -155 -119t-178 -40q-104 0 -178 50t-96 124q-23 74 -23 220v212q1 126 -21 168t-96 59v93l413 18v-524q0 -96 9 -132
q10 -36 52 -68t109 -32zM422 1040h-121l204 368h266l215 -368h-121l-227 189z" />
    <glyph glyph-name="udieresis" unicode="&#xfc;" horiz-adv-x="1280" 
d="M631 166q67 0 164 67v356q0 97 -6 128t-36 59t-78 35v93l416 18v-609q-1 -111 19 -145t84 -34q18 0 45 3v-103l-361 -53h-83v156q-83 -79 -155 -119t-178 -40q-104 0 -178 50t-96 124q-23 74 -23 220v212q1 126 -21 168t-96 59v93l413 18v-524q0 -96 9 -132
q10 -36 52 -68t109 -32zM547 1230q0 -54 -39 -93q-40 -39 -94 -39t-93 39t-39 93t38 94q38 39 96 39q56 0 94 -40q38 -39 37 -93zM1006 1230q0 -54 -39 -93t-93 -39t-94 38q-39 38 -39 94q0 55 39 94t94 39q56 0 94 -39q38 -40 38 -94z" />
    <glyph glyph-name="yacute" unicode="&#xfd;" horiz-adv-x="1109" 
d="M1108 922v-96q-52 -3 -86 -58t-56 -107l-360 -790q-69 -150 -146 -203t-172 -53q-96 0 -152 47t-56 112q0 64 38 104t92 40q56 0 104 -59t82 -59q36 0 70 36t54 79l23 55l-404 739q-43 79 -64 95t-67 22v96h549v-96q-115 -4 -115 -63q0 -27 14 -53l230 -420l152 335
q22 50 22 86q0 113 -117 115v96h365zM590 1444h176q74 0 74 -36q0 -29 -59 -87l-289 -286h-120l104 304q27 77 46 91t68 14z" />
    <glyph glyph-name="thorn" unicode="&#xfe;" horiz-adv-x="1259" 
d="M625 803q-68 0 -158 -62v-312q0 -169 49 -235t137 -66t153 98t65 242t-73 239.5t-173 95.5zM622 33q-68 0 -155 17v-127q0 -97 16.5 -136.5t56 -58t68.5 -18.5h22v-95h-612v95q87 0 120 46.5t33 166.5v1225l-150 100v62l337 109h109v-563q151 144 319 144t283 -129
t115 -337t-150 -354.5t-412 -146.5z" />
    <glyph glyph-name="ydieresis" unicode="&#xff;" horiz-adv-x="1109" 
d="M1108 922v-96q-52 -3 -86 -58t-56 -107l-360 -790q-69 -150 -146 -203t-172 -53q-96 0 -152 47t-56 112q0 64 38 104t92 40q56 0 104 -59t82 -59q36 0 70 36t54 79l23 55l-404 739q-43 79 -64 95t-67 22v96h549v-96q-115 -4 -115 -63q0 -27 14 -53l230 -420l152 335
q22 50 22 86q0 113 -117 115v96h365zM461 1230q0 -54 -39 -93q-40 -39 -94 -39t-93 39t-39 93t38 94q38 39 96 39q56 0 94 -40q38 -39 37 -93zM920 1230q0 -54 -39 -93t-93 -39t-94 38q-39 38 -39 94q0 55 39 94t94 39q56 0 94 -39q38 -40 38 -94z" />
    <glyph glyph-name="Cacute" unicode="&#x106;" horiz-adv-x="1643" 
d="M1549 457v-343q-256 -142 -608 -142q-353 0 -597 183t-244 507t222 544t612 220q293 0 557 -128l42 -324h-152q-41 119 -169 238t-294 119q-202 0 -315 -163q-113 -162 -113 -452t132 -470t340 -179q312 0 433 390h154zM994 1862h176q74 0 74 -36q0 -29 -59 -87
l-289 -286h-120l104 304q27 77 46 91t68 14z" />
    <glyph glyph-name="cacute" unicode="&#x107;" 
d="M529 -22q-217 0 -337 141t-120 338t140 343t413 146q171 0 258 -64t87 -157q0 -55 -40 -99t-100 -44q-95 0 -142 145q-23 67 -51 93q-29 26 -93 26t-128 -66q-62 -66 -62 -209q0 -142 98 -262t228 -120q131 0 237 107l76 -69q-61 -123 -191 -186t-273 -63zM621 1444h176
q74 0 74 -36q0 -29 -59 -87l-289 -286h-120l104 304q27 77 46 91t68 14z" />
    <glyph glyph-name="Ccaron" unicode="&#x10c;" horiz-adv-x="1643" 
d="M1549 457v-343q-256 -142 -608 -142q-353 0 -597 183t-244 507t222 544t612 220q293 0 557 -128l42 -324h-152q-41 119 -169 238t-294 119q-202 0 -315 -163q-113 -162 -113 -452t132 -470t340 -179q312 0 433 390h154zM720 1847l216 -189l227 189h121l-215 -368h-266
l-204 368h121z" />
    <glyph glyph-name="ccaron" unicode="&#x10d;" 
d="M529 -22q-217 0 -337 141t-120 338t140 343t413 146q171 0 258 -64t87 -157q0 -55 -40 -99t-100 -44q-95 0 -142 145q-23 67 -51 93q-29 26 -93 26t-128 -66q-62 -66 -62 -209q0 -142 98 -262t228 -120q131 0 237 107l76 -69q-61 -123 -191 -186t-273 -63zM355 1408
l216 -189l227 189h121l-215 -368h-266l-204 368h121z" />
    <glyph glyph-name="dcroat" unicode="&#x111;" horiz-adv-x="1259" 
d="M615 165q88 0 177 69v337q0 157 -56 216t-125 59q-103 0 -166 -97t-63 -245t72.5 -243.5t160.5 -95.5zM569 946q111 0 223 -46v148h-283v94h283v43l-161 84v66l400 96h56v-289h154v-94h-154v-703q0 -85 3.5 -127t30.5 -66.5t59 -24.5t61 7v-110l-357 -42h-92v152
q-166 -156 -330 -156t-280 131t-116 335t143 353t360 149z" />
    <glyph glyph-name="Gbreve" unicode="&#x11e;" horiz-adv-x="1728" 
d="M972 68q112 0 198 54v256q0 112 -17 150q-33 73 -146 73h-19v96h702v-96q-96 -9 -127 -51t-31 -172v-296q-90 -51 -285 -81t-335 -30q-372 1 -592 185t-220 517q0 243 114 405t280 255t449 93q155 0 315 -36t241 -87l23 -320h-132q-64 153 -195 248t-298 95t-285 -143
t-119 -456q0 -313 122 -486t357 -173zM924 1482q-122 0 -206 96t-84 253h83q7 -71 65 -129t140 -59q84 -1 140 51t69 137h86q-1 -165 -85 -257q-86 -92 -208 -92z" />
    <glyph glyph-name="gbreve" unicode="&#x11f;" horiz-adv-x="1131" 
d="M249 -165q0 -119 289 -119q151 0 239 44t88 107q0 77 -193 77l-268 -7q-29 0 -78 4q-77 -48 -77 -106zM545 415q133 0 133 173q0 262 -140 262t-139 -198q0 -237 146 -237zM106 620q0 146 110 236t312 90q88 0 226 -14t208 -14t158 6l1 -198q-18 -2 -48 -2t-73 4t-55 5
q18 -77 18 -113q1 -142 -125 -222t-338 -80q-39 0 -103 11q-75 -49 -75 -92q0 -23 25 -31t117 -9l226 7q108 0 180 -21t122 -86t50 -149t-62 -164t-178 -125t-326 -45t-304 53t-94 137q0 42 32 78t121 84q-46 12 -88 56t-42 95q0 132 204 236q-199 86 -199 267zM564 1048
q-122 0 -206 96t-85 253h83q6 -71 64 -129t141 -59t139 51t70 137h86q-2 -165 -86 -257t-206 -92z" />
    <glyph glyph-name="Idotaccent" unicode="&#x130;" horiz-adv-x="832" 
d="M776 0h-720v95q130 1 162 79q14 36 14 144v761q0 111 -16 149q-33 74 -160 74v95h720v-95q-134 0 -167 -78q-15 -36 -15 -145v-761q0 -110 17 -148q34 -75 165 -75v-95zM546 1659q0 -55 -39 -93t-93 -38t-94 38t-39 94q0 55 39 94t95 39q55 0 93 -40t38 -94z" />
    <glyph glyph-name="dotlessi" unicode="&#x131;" horiz-adv-x="683" 
d="M496 940v-632q0 -111 25 -154.5t104 -58.5v-95h-568v95q75 0 109.5 45t34.5 168v364l-144 82v84l345 102h94z" />
    <glyph glyph-name="Lslash" unicode="&#x141;" horiz-adv-x="1408" 
d="M244 1079q0 111 -25 167t-145 56v95h716v-95q-139 0 -161.5 -58.5t-22.5 -164.5v-158l294 243v-250l-294 -243v-337q0 -123 41 -179t159 -56q244 0 458 249h128l-61 -348h-1257v95q123 0 146.5 56.5t23.5 166.5v55l-170 -140v250l170 140v456z" />
    <glyph glyph-name="lslash" unicode="&#x142;" horiz-adv-x="640" 
d="M481 308q0 -116 28 -159.5t111 -53.5v-95h-605v95h23q68 0 103 44.5t35 168.5v151l-161 -133v250l161 133v448l-161 91v58l394 113h72v-459l161 132v-249l-161 -133v-402z" />
    <glyph glyph-name="OE" unicode="&#x152;" horiz-adv-x="2133" 
d="M478 672q0 -236 75.5 -405t236.5 -169q131 0 207.5 122t76.5 396t-45.5 415t-111 203t-159.5 62t-163 -70t-93 -194t-24 -360zM820 0q-459 0 -594 238t-135 432t66.5 341.5t182 238.5t227.5 119t324 28h1117v-291h-136l-67 76q-60 67 -122.5 93.5t-193.5 26.5h-337
q107 -58 200 -193t110 -331h41q117 0 165.5 52.5t64.5 119.5h135v-452h-136q-32 90 -82 137.5t-148 47.5h-40q-15 -389 -343 -588h307q206 0 291 55t169 132l68 62h135l-66 -344h-1203z" />
    <glyph glyph-name="oe" unicode="&#x153;" horiz-adv-x="1771" 
d="M1383 654q0 76 -47 134t-119 58t-119.5 -58.5t-50.5 -165.5h334q2 19 2 32zM587 74q163 0 163 320q0 237 -44 344.5t-141 107.5q-162 0 -162 -329q0 -192 37.5 -317.5t146.5 -125.5zM552 946q208 0 333 -114q162 114 370 114q163 0 294 -97t152 -322h-657q1 -124 29 -192
t102.5 -111.5t178.5 -43.5q164 0 259 107l71 -57q-173 -252 -455 -252q-199 0 -344 121q-165 -121 -347 -121q-181 0 -322.5 126.5t-141.5 346.5t135 357.5t343 137.5z" />
    <glyph glyph-name="Scedilla" unicode="&#x15e;" horiz-adv-x="1344" 
d="M886 -218q0 -96 -91.5 -138t-338.5 -42v94q116 5 142.5 22t26.5 44q0 58 -98 66l99 145q-279 11 -507 105l-8 346h167q55 -206 166.5 -279t215.5 -73t172 50t68 124t-29.5 124.5t-83 85t-213.5 106.5t-257 130t-154.5 145.5t-57.5 182.5q0 171 154.5 288.5t402.5 117.5
t498 -118l16 -307h-163q-20 134 -118 230.5t-219 96.5t-176.5 -52t-55.5 -127t72 -132t274 -144q200 -87 331.5 -187t131.5 -305q0 -163 -121.5 -273.5t-383.5 -132.5l-15 -37q153 -37 153 -156z" />
    <glyph glyph-name="scedilla" unicode="&#x15f;" horiz-adv-x="939" 
d="M624 -198q0 -72 -57.5 -116t-265.5 -44v84q87 5 107 20t20 41q0 48 -74 58l77 134q-138 11 -328 82l-16 240h91q123 -216 313 -216q69 0 116.5 27.5t47.5 73.5t-37 73q-38 25 -206 81t-252.5 126t-84.5 204t107.5 205t265.5 71t339 -69l22 -224h-87q-39 77 -118 135
t-157 58t-118.5 -26t-40.5 -66t37 -66.5t174 -74.5t251.5 -108.5t114.5 -229.5q0 -123 -86.5 -206.5t-257.5 -91.5l-12 -33q115 -32 115 -142z" />
    <glyph glyph-name="Scaron" unicode="&#x160;" horiz-adv-x="1344" 
d="M660 1328q-100 0 -158 -50t-58 -121t58 -127t272 -150q216 -94 302 -159q178 -135 177 -332q0 -197 -153 -307t-422 -110q-128 0 -286 29t-273 77l-8 346h167q55 -206 166 -279q112 -73 216 -73t172 50t68 124t-30 125t-82 85q-54 34 -214 106t-257 130t-155 146t-57 182
q0 170 154 288q155 118 403 118t498 -118l16 -307h-163q-20 135 -118 231t-235 96zM457 1847l216 -189l227 189h121l-215 -368h-266l-204 368h121z" />
    <glyph glyph-name="scaron" unicode="&#x161;" horiz-adv-x="939" 
d="M447 846q-79 0 -119 -26t-40 -64t30 -64t174 -76t218 -90q155 -81 155 -251q0 -135 -97 -217q-98 -82 -264 -82t-401 85l-16 240h91q123 -216 313 -216q69 0 117 27q48 28 47 74q0 46 -37 73q-38 25 -206 81t-252 126t-85 204t107 205t266 71t339 -69l22 -224h-87
q-39 77 -118 135t-157 58zM249 1408l216 -189l227 189h121l-215 -368h-266l-204 368h121z" />
    <glyph glyph-name="Ydieresis" unicode="&#x178;" horiz-adv-x="1493" 
d="M780 1397v-95q-109 -2 -140 -28t-31 -60t36 -103l235 -449l211 378q52 93 52 139q0 116 -146 123v95h469v-95q-85 -16 -142 -91t-84 -122l-318 -539v-232q0 -114 20 -152q36 -71 145 -71h32v-95h-747v95h33q115 0 147 74q16 37 16 149v190l-357 675q-39 77 -93 100
q-26 11 -89 19v95h751zM715 1660q0 -54 -39 -93q-40 -39 -94 -39t-93 39t-39 93t38 94q38 39 96 39q56 0 94 -40q38 -39 37 -93zM1174 1660q0 -54 -39 -93t-93 -39t-94 38q-39 38 -39 94q0 55 39 94t94 39q56 0 94 -39q38 -40 38 -94z" />
    <glyph glyph-name="Zcaron" unicode="&#x17d;" horiz-adv-x="1408" 
d="M774 95q152 0 234 57t132 121l58 76h145l-67 -349h-1215v74l806 1228h-239q-128 0 -180 -26t-120 -106l-70 -82h-129v309h1178l-2 -61l-811 -1241h280zM481 1847l216 -189l227 189h121l-215 -368h-266l-204 368h121z" />
    <glyph glyph-name="zcaron" unicode="&#x17e;" horiz-adv-x="1045" 
d="M494 826q-92 0 -136 -13q-100 -29 -183 -195h-106l23 344h79q35 -40 166 -40h626l-1 -86l-546 -741h90q126 -1 202 41t170 160h109l-41 -296h-906l10 95l422 549q33 43 149 182h-127zM292 1408l216 -189l227 189h121l-215 -368h-266l-204 368h121z" />
    <glyph glyph-name="florin" unicode="&#x192;" horiz-adv-x="1280" 
d="M1068 1439q73 0 126.5 -42.5t53.5 -96.5q0 -108 -97 -108q-44 0 -63 18.5t-35 75.5q-17 57 -52 57q-26 0 -43 -24.5t-17 -60.5q-1 -36 15 -122t16 -122t-24 -92h196l-23 -121h-192l-138 -587q-2 -9 -8 -41q-57 -287 -151 -422t-243 -135q-87 0 -144 45t-57 94t30 77
t72 28q64 0 97 -88q18 -48 28.5 -61.5t29.5 -13.5q60 0 60 93l-6 141q0 205 78 502l96 368h-195l24 121q153 0 199.5 71t84.5 194q79 252 282 252z" />
    <glyph glyph-name="circumflex" unicode="&#x2c6;" horiz-adv-x="683" 
d="M120 1040h-121l204 368h266l215 -368h-121l-227 189z" />
    <glyph glyph-name="caron" unicode="&#x2c7;" horiz-adv-x="683" 
d="M114 1408l216 -189l227 189h121l-215 -368h-266l-204 368h121z" />
    <glyph glyph-name="macron" unicode="&#x2c9;" horiz-adv-x="683" 
d="M-57 1138v186h776v-186h-776z" />
    <glyph glyph-name="breve" unicode="&#x2d8;" horiz-adv-x="683" 
d="M340 1048q-122 0 -205.5 96.5t-84.5 252.5h83q7 -71 64.5 -129.5t140.5 -58.5t139.5 51.5t69.5 136.5h86q-1 -165 -86 -257t-207 -92z" />
    <glyph glyph-name="dotaccent" unicode="&#x2d9;" horiz-adv-x="683" 
d="M472 1229q0 -54 -39 -92.5t-93 -38.5t-93.5 38.5t-39.5 93.5t39 94t95 39t93.5 -40t37.5 -94z" />
    <glyph glyph-name="ring" unicode="&#x2da;" horiz-adv-x="683" 
d="M446 1230q0 46 -32 79t-79 33t-80 -33t-33 -79t33 -78.5t79 -32.5t79 32.5t33 78.5zM539 1230q0 -82 -59 -143.5t-145 -61.5t-146 60.5t-60 144.5t60.5 145t146.5 61t144.5 -62t58.5 -144z" />
    <glyph glyph-name="ogonek" unicode="&#x2db;" horiz-adv-x="683" 
d="M185 -105q0 -80 60.5 -132.5t129.5 -52.5t141 24l21 -29q-121 -83 -227 -83t-169 55t-63 149t81 174h51q-25 -63 -25 -105z" />
    <glyph glyph-name="tilde" unicode="&#x2dc;" horiz-adv-x="683" 
d="M480 1080q-72 0 -169 38q-98 38 -120 39q-71 0 -88 -76l-123 1q1 144 66.5 212.5t143.5 68.5q78 -1 168 -39t124 -38q73 0 90 78h125q-8 -165 -76.5 -224.5t-140.5 -59.5z" />
    <glyph glyph-name="hungarumlaut" unicode="&#x2dd;" horiz-adv-x="683" 
d="M673 1444h175q74 0 74 -32t-59 -91l-289 -286h-120l105 304q25 73 44 89t70 16zM250 1444h176q74 0 74 -32t-59 -91l-289 -286h-120l104 304q26 73 45 89t69 16z" />
    <glyph glyph-name="pi" unicode="&#x3c0;" horiz-adv-x="1109" 
d="M812 -28q-191 0 -191 331q0 143 35 425h-198q-32 -517 -84 -636.5t-132 -119.5q-47 0 -76.5 30.5t-29.5 77.5q0 48 54 144t76.5 200.5t26.5 303.5h-34q-130 0 -177 -116h-37q36 122 92 202.5t104.5 100.5t158.5 20h632v-207h-215q-36 -290 -36 -436t87 -146q99 0 118 170
h37q-12 -344 -211 -344z" />
    <glyph glyph-name="endash" unicode="&#x2013;" horiz-adv-x="1024" 
d="M-12 637h1048v-250h-1048v250z" />
    <glyph glyph-name="emdash" unicode="&#x2014;" horiz-adv-x="2048" 
d="M-12 637h2072v-250h-2072v250z" />
    <glyph glyph-name="quoteleft" unicode="&#x2018;" horiz-adv-x="704" 
d="M319 1148q0 -59 55 -59q179 0 179 -142q0 -69 -49.5 -118.5t-145.5 -49.5t-158 83t-62 199q0 188 142 277t208 89q9 0 16 -16l28 -58l3 -11q0 -11 -21 -18q-80 -25 -138 -71t-57 -105z" />
    <glyph glyph-name="quoteright" unicode="&#x2019;" horiz-adv-x="704" 
d="M385 1056q0 60 -55 60q-179 0 -179 143q0 70 50.5 118.5t140.5 48.5t157 -77t67 -201t-64 -206.5t-162.5 -122.5t-115.5 -40t-24 15l-28 59l-3 10q0 12 21 18q74 23 134 69t61 106z" />
    <glyph glyph-name="quotesinglbase" unicode="&#x201a;" horiz-adv-x="704" 
d="M391 -14q0 60 -55 60q-179 0 -179 143q0 70 50.5 118.5t140.5 48.5t157 -77t67 -201t-64 -206.5t-162.5 -122.5t-115.5 -40t-24 15l-28 58l-3 11q0 12 21 18q74 23 134 69t61 106z" />
    <glyph glyph-name="quotedblleft" unicode="&#x201c;" horiz-adv-x="1259" 
d="M1108 1392v-51q0 -28 -30 -29q-84 -4 -141 -64t-57 -114t22 -72t73 -28q52 -10 75 -21.5t42.5 -47t19.5 -96.5t-46 -115t-132 -54t-156 81.5t-70 243.5t119 282t242 120q39 0 39 -35zM566 1392v-51q0 -28 -30 -29q-82 -4 -140 -64t-58 -114t22 -72t74 -28t75 -21.5
t42.5 -47t19.5 -97.5t-47 -115t-119 -53q-102 0 -170 84t-68 244t118.5 279.5t242.5 119.5q38 0 38 -35z" />
    <glyph glyph-name="quotedblright" unicode="&#x201d;" horiz-adv-x="1259" 
d="M155 735v51q0 28 30 29q83 3 141 63t57 114q0 54 -21 74q-22 18 -74 28t-75.5 21t-42.5 46t-19 97t47 115t118 53q102 0 170 -83.5t68 -243.5t-118.5 -279.5t-241.5 -119.5q-39 0 -39 35zM697 735v51q0 28 30 29q83 2 141 63q57 61 57 115t-21 73q-22 18 -74 28t-75.5 21
t-43 46.5t-19.5 96.5t47 114.5t119 53.5q102 0 170 -84t68 -244t-118.5 -279t-242.5 -119q-38 0 -38 35z" />
    <glyph glyph-name="quotedblbase" unicode="&#x201e;" horiz-adv-x="1259" 
d="M144 -335v51q0 28 30 29q82 3 140 63t58 114t-21 74q-22 18 -74 28t-75.5 21t-42.5 47t-19 96t46 114t119 54q102 0 170 -83.5t68 -243.5t-118.5 -279.5t-241.5 -119.5q-39 0 -39 35zM686 -335v51q0 28 30 29q83 2 141 63q57 61 57 115t-21 73q-23 18 -75 28t-75 21
t-42.5 46.5t-19.5 96.5t47 114.5t119 53.5q102 0 170 -84t68 -244t-118.5 -279t-242.5 -119q-38 0 -38 35z" />
    <glyph glyph-name="dagger" unicode="&#x2020;" horiz-adv-x="960" 
d="M658 -252q0 -90 -21 -118t-81 -28h-130q-70 0 -91.5 30t-21.5 136t12 215l60 513q17 149 41 287q-11 -5 -74 -39q-160 -86 -222 -86q-72 0 -72 88v187q0 68 61 68q28 0 64.5 -11t242.5 -105l-74 203q-61 169 -61 247q0 91 89 91h148q67 0 92 -21.5t25 -87.5t-130 -430
q52 21 149 67t149 46q78 0 78 -70v-149q0 -121 -79 -121q-64 0 -214 79q-63 33 -83 42q30 -141 53 -302l71 -503q19 -138 19 -228z" />
    <glyph glyph-name="daggerdbl" unicode="&#x2021;" horiz-adv-x="981" 
d="M593 515q0 -39 -53 -353q230 118 302 118q65 0 65 -85v-153q0 -76 -67 -76q-79 0 -300 114q128 -301 128 -378q0 -87 -96 -87h-166q-88 0 -88 87q0 61 61 215t63 165q-236 -116 -299 -116t-63 82v158q0 74 65 74q81 0 297 -118q-51 304 -51 366t34 244l18 103
q-37 -15 -139 -65t-160 -50q-64 0 -64 80v162q0 67 62 67q39 0 91.5 -20t208.5 -91q-123 297 -123 388q0 32 23 56t60 24h153q115 0 115 -83q0 -77 -99 -311l-31 -74q234 113 302 113q36 0 50.5 -20.5t14.5 -66.5v-144q1 -81 -65 -81t-302 116q19 -71 36 -196t17 -164z" />
    <glyph glyph-name="bullet" unicode="&#x2022;" horiz-adv-x="725" 
d="M363 962q115 0 200 -82t85 -202t-84 -204t-202 -84t-201.5 84t-83.5 204t85.5 202t200.5 82z" />
    <glyph glyph-name="ellipsis" unicode="&#x2026;" horiz-adv-x="2112" 
d="M1947 168q0 -78 -55 -132t-132 -54t-132 54t-55 132t54.5 133t132.5 55t132.5 -55t54.5 -133zM1243 168q0 -76 -55 -131t-132 -55t-132 54t-55 132t54.5 133t133.5 55t132.5 -56t53.5 -132zM539 168q0 -76 -55 -131t-132 -55t-132 54t-55 132t55.5 133t133.5 55
t131.5 -56t53.5 -132z" />
    <glyph glyph-name="perthousand" unicode="&#x2030;" horiz-adv-x="2389" 
d="M2004 646q-50 0 -66.5 -56t-16.5 -254t16.5 -251t64.5 -53t66 52t18 252t-16 255t-66 55zM2358 338q0 -169 -94.5 -270t-259.5 -101t-258.5 102.5t-93.5 274.5t96.5 269.5t259.5 97.5t256.5 -102t93.5 -271zM1210 646q-50 0 -66 -56t-16 -260t18.5 -251t64.5 -47t63.5 52
t17.5 252t-16 255t-66 55zM1564 336q0 -173 -96 -271t-262 -98t-257 104t-91 272t96 268t260 100t257 -101t93 -274zM456 -36h-145l807 1433h144zM376 1361q-44 0 -63.5 -45t-19.5 -260t18.5 -262t64.5 -47t64 51.5t18 260.5t-19 255.5t-63 46.5zM730 1050
q0 -172 -96.5 -270t-259.5 -98t-256.5 102t-93.5 274t96.5 270t259.5 98t256.5 -102t93.5 -274z" />
    <glyph glyph-name="guilsinglleft" unicode="&#x2039;" horiz-adv-x="640" 
d="M377 975h203q-60 -208 -244 -459q195 -291 248 -462h-207q-3 4 -89 169t-189 293q210 280 278 459z" />
    <glyph glyph-name="guilsinglright" unicode="&#x203a;" horiz-adv-x="640" 
d="M271 54h-203q60 209 245 460q-196 291 -249 461h207q122 -263 278 -461q-209 -280 -278 -460z" />
    <glyph glyph-name="franc" unicode="&#x20a3;" horiz-adv-x="1728" 
d="M602 665v-347q0 -113 26.5 -168t142.5 -55h29q28 0 67 18t55 58t16 137v158q0 64 -36 111t-85.5 67.5t-214.5 20.5zM1544 937q72 0 125.5 -43.5t53.5 -99.5t-39 -147.5t-90 -91.5q-38 0 -147 100q-36 33 -58 33q-52 0 -104 -79.5t-52 -162.5v-138q0 -132 36.5 -172.5
t152.5 -40.5v-95h-1356v95q128 0 151.5 57t23.5 166v761q0 110 -24 166.5t-151 56.5v95h1298v-296h-133q-74 113 -145.5 157t-234.5 44h-249v-542q232 0 347.5 52.5t176.5 127.5h107v-266q141 263 311 263z" />
    <glyph glyph-name="Euro" unicode="&#x20ac;" 
d="M658 -27q-202 0 -342 126.5t-183 361.5h-108l20 149h74v31q0 57 2 82h-96l20 149h96q53 231 182.5 358.5t311.5 127.5q98 0 197 -26.5t147 -57.5l27 -289h-95q-89 277 -266 277q-86 0 -145 -100.5t-78 -289.5h496l-25 -149h-479v-27l2 -86h461l-25 -149h-426
q44 -385 246 -385q130 0 284 125q0 -6 32.5 -49t35.5 -43q-164 -136 -366 -136z" />
    <glyph glyph-name="trademark" unicode="&#x2122;" horiz-adv-x="2048" 
d="M848 1397h368l231 -495l229 495h347v-38q-64 0 -82.5 -25t-18.5 -109v-472q0 -76 19.5 -100.5t81.5 -28.5v-34h-462v34q75 2 95 25t20 104v506l-320 -669h-24l-318 669v-502q0 -66 10 -98.5t104 -34.5v-34h-280v34q71 3 90 25.5t19 109.5v468q0 88 -20.5 110t-88.5 22v38
zM9 1397h777v-226h-35q-3 75 -42 124.5t-152 49.5h-38v-587q0 -85 20 -109.5t83 -24.5v-34h-454v34q66 3 84.5 19t18.5 118v584h-35q-93 0 -140.5 -40t-53.5 -134h-33v226z" />
    <glyph glyph-name="Omega" unicode="&#x2126;" horiz-adv-x="1621" 
d="M57 0v377h36q4 -69 33.5 -101t125.5 -32h328l-7 69q-251 53 -358.5 197t-107.5 308t138 366.5t566 202.5q352 0 528 -172.5t176 -389.5q0 -171 -107.5 -315t-358.5 -197l-7 -69h328q65 0 109.5 16.5t49.5 116.5h36v-377h-619l34 359q183 63 183 441q0 287 -106.5 398
t-230.5 111t-206.5 -63t-121.5 -162.5t-39 -251.5t22 -252.5t60.5 -148t100.5 -72.5l34 -359h-619z" />
    <glyph glyph-name="partialdiff" unicode="&#x2202;" horiz-adv-x="1024" 
d="M683 883q-146 0 -244 -216t-98 -455q0 -94 29 -131t91 -37q134 0 259 199t172 448q-63 192 -209 192zM683 1434q178 0 236 -115.5t58 -284.5q0 -344 -95 -586t-209.5 -356.5t-270.5 -114.5t-236.5 92.5t-80.5 230.5t83.5 286.5t222.5 248t281 99.5q168 0 236 -150
q8 77 8 148t-55 186.5t-258 115.5q-142 0 -226 -84h-42q104 284 348 284z" />
    <glyph glyph-name="Delta" unicode="&#x2206;" horiz-adv-x="1259" 
d="M993 82l-399 967l-440 -967h839zM1229 0h-1200l628 1387z" />
    <glyph glyph-name="product" unicode="&#x220f;" horiz-adv-x="1685" 
d="M1240 1341h-795v-1533q0 -85 38 -120t124 -35h36v-38h-597v38h35q93 0 128 37.5t35 117.5v1418q0 85 -38 120t-125 35h-35v38h1594v-38h-35q-86 0 -124 -36t-38 -119v-1418q0 -85 37.5 -120t124.5 -35h35v-38h-597v38h35q93 0 127.5 37.5t34.5 117.5v1533z" />
    <glyph glyph-name="summation" unicode="&#x2211;" horiz-adv-x="1460" 
d="M43 -385v36l661 876l-661 854v38h1278l27 -337h-40q-27 256 -249 256h-740l560 -721l-627 -825h818q67 0 139 22.5t109 72.5t62 151l40 -8l-64 -415h-1313z" />
    <glyph glyph-name="minus" unicode="&#x2212;" horiz-adv-x="1365" 
d="M127 770h1112v-208h-1112v208z" />
    <glyph glyph-name="fraction" unicode="&#x2215;" horiz-adv-x="576" 
d="M-34 -36h-145l789 1433h145z" />
    <glyph glyph-name="periodcentered" unicode="&#x2219;" horiz-adv-x="704" 
d="M535 666q0 -77 -54.5 -132t-132.5 -55t-132.5 54.5t-54.5 132.5t55 132.5t133 54.5t132 -55t54 -132z" />
    <glyph glyph-name="radical" unicode="&#x221a;" horiz-adv-x="1131" 
d="M1053 1869h74l-312 -1947l-496 1021l-198 -91l-34 64l301 151l405 -823z" />
    <glyph glyph-name="infinity" unicode="&#x221e;" horiz-adv-x="1451" 
d="M104 672q0 -132 70 -212.5t146 -80.5t146.5 50.5t142.5 267.5l11 33q-90 215 -267 215q-96 0 -172.5 -70.5t-76.5 -202.5zM1068 341q118 0 197.5 93t79.5 235t-86 239.5t-196 97.5q-80 0 -132 -43.5t-81.5 -100.5t-93.5 -228l-11 -29q66 -138 135.5 -201t187.5 -63z
M392 301q-108 0 -225.5 82.5t-117.5 286.5q0 162 91 264t216 102q95 0 159 -49t134 -179q70 168 158 222t212 54q167 0 275 -118t108 -302t-110.5 -300t-238.5 -116q-79 0 -155 49t-182 237q-112 -233 -324 -233z" />
    <glyph glyph-name="integral" unicode="&#x222b;" horiz-adv-x="555" 
d="M214.5 -64q29.5 0 29.5 52t-9 129q-38 317 -38 778l12 445q9 344 75 433.5t148 89.5q43 0 84 -30.5t41 -75.5t-25.5 -75t-63.5 -30t-70 28t-49 28q-40 0 -40 -52t23 -310t23 -419t-12 -563.5t-77 -493t-151 -90.5q-49 0 -83.5 32t-34.5 82t24.5 78t64.5 28t70 -32
q29 -32 58.5 -32z" />
    <glyph glyph-name="approxequal" unicode="&#x2248;" horiz-adv-x="1365" 
d="M1238 589q0 -162 -80.5 -263t-212.5 -101q-65 0 -132 20.5t-225 88.5t-222 67q-141 0 -168 -175h-70q7 194 89.5 279t198.5 85t381 -116q143 -62 209 -62t110 49.5t52 127.5h70zM1238 1104q0 -158 -80 -261t-212 -103q-66 0 -133 20t-225 88t-222 68q-140 0 -168 -176
h-70q7 195 89.5 280t198.5 85t381 -116q142 -62 209 -62t110.5 49t51.5 128h70z" />
    <glyph glyph-name="notequal" unicode="&#x2260;" horiz-adv-x="1365" 
d="M127 1010h598l205 528h185l-205 -528h328v-209h-410l-105 -268h515v-209h-597l-207 -526h-185l207 526h-329v209h411l105 268h-516v209z" />
    <glyph glyph-name="lessequal" unicode="&#x2264;" horiz-adv-x="1365" 
d="M127 125h1112v-208h-1112v208zM1238 320l-1111 463v189l1111 464v-226l-826 -332l826 -332v-226z" />
    <glyph glyph-name="greaterequal" unicode="&#x2265;" horiz-adv-x="1365" 
d="M127 125h1112v-208h-1112v208zM127 1436l1111 -463v-189l-1111 -464v226l826 332l-826 331v227z" />
    <glyph glyph-name="lozenge" unicode="&#x25ca;" horiz-adv-x="1012" 
d="M495 1325l-340 -616l340 -615l359 615zM549 1422l418 -713l-418 -709h-111l-391 709l391 713h111z" />
    <glyph glyph-name="fi" unicode="&#xf001;" horiz-adv-x="1387" 
d="M1183 954v-646q0 -115 31 -162t108 -51v-95h-559v95q72 16 95 61.5t23 151.5v291q0 88 -21.5 147t-191.5 59h-154v-497q0 -109 27.5 -157t88.5 -56v-95h-555v95q81 11 109 53.5t28 159.5v497h-150v117q68 1 90 10.5t38 38t38 105.5t48.5 124t94 100t176.5 86t264 33
t244 -51.5t89 -123.5t-41 -104t-101 -32t-94.5 28t-64.5 91q-41 89 -127 89t-144 -64.5t-58 -183.5v-146h389q125 0 211 32h69z" />
    <glyph glyph-name="fl" unicode="&#xf002;" horiz-adv-x="1387" 
d="M882 922v232q-21 18 -41 63q-45 99 -133 99t-143 -68t-55 -203v-123h372zM1184 1418v-1110q0 -113 29.5 -160t102.5 -53v-95h-556v95q51 7 86.5 42.5t35.5 170.5v497h-372v-497q0 -105 22.5 -150t96.5 -63v-95h-559v95q82 11 110 53.5t28 159.5v497h-151v117q67 0 98 19
t61 117t55 144t131.5 131.5t394.5 85.5q146 0 231 -39l98 38h58z" />
    <glyph glyph-name="foursuperior" unicode="&#xf003;" horiz-adv-x="661" 
d="M365 924v274l-221 -274h221zM631 924v-117h-92v-168h-174v168h-318v102l365 448h127v-433h92z" />
    <glyph glyph-name="commaaccent" unicode="&#xf004;" horiz-adv-x="683" 
d="M156 -742v45q0 25 27 26q79 5 135 55t55 116q0 38 -20 54t-70 26q-50 9 -72.5 21t-39 43.5t-16.5 93.5t46 101.5t123 39.5t140 -72.5t63 -218.5t-105 -254t-233 -108q-33 0 -33 32z" />
    </font>
</defs>
</svg>
